G04 #@! TF.GenerationSoftware,KiCad,Pcbnew,(5.1.9)-1*
G04 #@! TF.CreationDate,2021-03-12T14:24:21+01:00*
G04 #@! TF.ProjectId,case_keypad,63617365-5f6b-4657-9970-61642e6b6963,rev?*
G04 #@! TF.SameCoordinates,Original*
G04 #@! TF.FileFunction,Soldermask,Top*
G04 #@! TF.FilePolarity,Negative*
%FSLAX46Y46*%
G04 Gerber Fmt 4.6, Leading zero omitted, Abs format (unit mm)*
G04 Created by KiCad (PCBNEW (5.1.9)-1) date 2021-03-12 14:24:21*
%MOMM*%
%LPD*%
G01*
G04 APERTURE LIST*
%ADD10C,5.600000*%
%ADD11C,0.700000*%
%ADD12O,1.050000X2.100000*%
%ADD13R,0.600000X1.950000*%
%ADD14R,0.300000X1.950000*%
%ADD15C,1.500000*%
%ADD16C,1.700000*%
%ADD17C,4.000000*%
%ADD18C,2.200000*%
%ADD19R,1.600000X0.550000*%
%ADD20R,0.550000X1.600000*%
%ADD21R,2.000000X2.000000*%
%ADD22C,2.000000*%
%ADD23R,2.000000X3.200000*%
%ADD24R,1.100000X1.800000*%
%ADD25R,1.200000X0.900000*%
G04 APERTURE END LIST*
D10*
G04 #@! TO.C,REF\u002A\u002A*
X77500000Y-102000000D03*
G04 #@! TD*
G04 #@! TO.C,REF\u002A\u002A*
X77500000Y-67000000D03*
G04 #@! TD*
G04 #@! TO.C,REF\u002A\u002A*
X159000000Y-102000000D03*
G04 #@! TD*
G04 #@! TO.C,REF\u002A\u002A*
X159000000Y-67000000D03*
G04 #@! TD*
D11*
G04 #@! TO.C,J1*
X147360000Y-67650000D03*
X153140000Y-67650000D03*
D12*
X145930000Y-64000000D03*
X154570000Y-64000000D03*
X145930000Y-68180000D03*
X154570000Y-68180000D03*
D13*
X147000000Y-69350000D03*
X147800000Y-69350000D03*
D14*
X148500000Y-69350000D03*
X149000000Y-69350000D03*
X149500000Y-69350000D03*
X150000000Y-69350000D03*
X152000000Y-69350000D03*
X151500000Y-69350000D03*
X151000000Y-69350000D03*
X150500000Y-69350000D03*
D13*
X152700000Y-69350000D03*
X153500000Y-69350000D03*
G04 #@! TD*
D15*
G04 #@! TO.C,16 MHz*
X150980000Y-99800000D03*
X146100000Y-99800000D03*
G04 #@! TD*
D16*
G04 #@! TO.C,SW9*
X133940000Y-95880000D03*
X123780000Y-95880000D03*
D17*
X128860000Y-95880000D03*
D18*
X125050000Y-93340000D03*
X131400000Y-90800000D03*
G04 #@! TD*
D16*
G04 #@! TO.C,SW8*
X133940000Y-76780000D03*
X123780000Y-76780000D03*
D17*
X128860000Y-76780000D03*
D18*
X125050000Y-74240000D03*
X131400000Y-71700000D03*
G04 #@! TD*
D16*
G04 #@! TO.C,SW6*
X114840000Y-95780000D03*
X104680000Y-95780000D03*
D17*
X109760000Y-95780000D03*
D18*
X105950000Y-93240000D03*
X112300000Y-90700000D03*
G04 #@! TD*
D16*
G04 #@! TO.C,SW5*
X114840000Y-76780000D03*
X104680000Y-76780000D03*
D17*
X109760000Y-76780000D03*
D18*
X105950000Y-74240000D03*
X112300000Y-71700000D03*
G04 #@! TD*
D16*
G04 #@! TO.C,SW4*
X95780000Y-95800000D03*
X85620000Y-95800000D03*
D17*
X90700000Y-95800000D03*
D18*
X86890000Y-93260000D03*
X93240000Y-90720000D03*
G04 #@! TD*
D16*
G04 #@! TO.C,SW3*
X95840000Y-76780000D03*
X85680000Y-76780000D03*
D17*
X90760000Y-76780000D03*
D18*
X86950000Y-74240000D03*
X93300000Y-71700000D03*
G04 #@! TD*
D19*
G04 #@! TO.C,U1*
X146900000Y-92200000D03*
X146900000Y-91400000D03*
X146900000Y-90600000D03*
X146900000Y-89800000D03*
X146900000Y-89000000D03*
X146900000Y-88200000D03*
X146900000Y-87400000D03*
X146900000Y-86600000D03*
D20*
X148350000Y-85150000D03*
X149150000Y-85150000D03*
X149950000Y-85150000D03*
X150750000Y-85150000D03*
X151550000Y-85150000D03*
X152350000Y-85150000D03*
X153150000Y-85150000D03*
X153950000Y-85150000D03*
D19*
X155400000Y-86600000D03*
X155400000Y-87400000D03*
X155400000Y-88200000D03*
X155400000Y-89000000D03*
X155400000Y-89800000D03*
X155400000Y-90600000D03*
X155400000Y-91400000D03*
X155400000Y-92200000D03*
D20*
X153950000Y-93650000D03*
X153150000Y-93650000D03*
X152350000Y-93650000D03*
X151550000Y-93650000D03*
X150750000Y-93650000D03*
X149950000Y-93650000D03*
X149150000Y-93650000D03*
X148350000Y-93650000D03*
G04 #@! TD*
D21*
G04 #@! TO.C,SW7*
X126400000Y-84200000D03*
D22*
X128900000Y-84200000D03*
X131400000Y-84200000D03*
D23*
X123300000Y-76700000D03*
X134500000Y-76700000D03*
D22*
X126400000Y-69700000D03*
X131400000Y-69700000D03*
G04 #@! TD*
D21*
G04 #@! TO.C,SW2*
X88300000Y-84200000D03*
D22*
X90800000Y-84200000D03*
X93300000Y-84200000D03*
D23*
X85200000Y-76700000D03*
X96400000Y-76700000D03*
D22*
X88300000Y-69700000D03*
X93300000Y-69700000D03*
G04 #@! TD*
D24*
G04 #@! TO.C,RESET*
X154950000Y-82200000D03*
X154950000Y-76000000D03*
X158650000Y-82200000D03*
X158650000Y-76000000D03*
G04 #@! TD*
G04 #@! TO.C,10k*
G36*
G01*
X158349999Y-88400000D02*
X159250001Y-88400000D01*
G75*
G02*
X159500000Y-88649999I0J-249999D01*
G01*
X159500000Y-89350001D01*
G75*
G02*
X159250001Y-89600000I-249999J0D01*
G01*
X158349999Y-89600000D01*
G75*
G02*
X158100000Y-89350001I0J249999D01*
G01*
X158100000Y-88649999D01*
G75*
G02*
X158349999Y-88400000I249999J0D01*
G01*
G37*
G36*
G01*
X158349999Y-86400000D02*
X159250001Y-86400000D01*
G75*
G02*
X159500000Y-86649999I0J-249999D01*
G01*
X159500000Y-87350001D01*
G75*
G02*
X159250001Y-87600000I-249999J0D01*
G01*
X158349999Y-87600000D01*
G75*
G02*
X158100000Y-87350001I0J249999D01*
G01*
X158100000Y-86649999D01*
G75*
G02*
X158349999Y-86400000I249999J0D01*
G01*
G37*
G04 #@! TD*
G04 #@! TO.C,5.1k*
G36*
G01*
X142300000Y-72449999D02*
X142300000Y-73350001D01*
G75*
G02*
X142050001Y-73600000I-249999J0D01*
G01*
X141349999Y-73600000D01*
G75*
G02*
X141100000Y-73350001I0J249999D01*
G01*
X141100000Y-72449999D01*
G75*
G02*
X141349999Y-72200000I249999J0D01*
G01*
X142050001Y-72200000D01*
G75*
G02*
X142300000Y-72449999I0J-249999D01*
G01*
G37*
G36*
G01*
X144300000Y-72449999D02*
X144300000Y-73350001D01*
G75*
G02*
X144050001Y-73600000I-249999J0D01*
G01*
X143349999Y-73600000D01*
G75*
G02*
X143100000Y-73350001I0J249999D01*
G01*
X143100000Y-72449999D01*
G75*
G02*
X143349999Y-72200000I249999J0D01*
G01*
X144050001Y-72200000D01*
G75*
G02*
X144300000Y-72449999I0J-249999D01*
G01*
G37*
G04 #@! TD*
G04 #@! TO.C,5.1k*
G36*
G01*
X158200000Y-73350001D02*
X158200000Y-72449999D01*
G75*
G02*
X158449999Y-72200000I249999J0D01*
G01*
X159150001Y-72200000D01*
G75*
G02*
X159400000Y-72449999I0J-249999D01*
G01*
X159400000Y-73350001D01*
G75*
G02*
X159150001Y-73600000I-249999J0D01*
G01*
X158449999Y-73600000D01*
G75*
G02*
X158200000Y-73350001I0J249999D01*
G01*
G37*
G36*
G01*
X156200000Y-73350001D02*
X156200000Y-72449999D01*
G75*
G02*
X156449999Y-72200000I249999J0D01*
G01*
X157150001Y-72200000D01*
G75*
G02*
X157400000Y-72449999I0J-249999D01*
G01*
X157400000Y-73350001D01*
G75*
G02*
X157150001Y-73600000I-249999J0D01*
G01*
X156449999Y-73600000D01*
G75*
G02*
X156200000Y-73350001I0J249999D01*
G01*
G37*
G04 #@! TD*
G04 #@! TO.C,10k*
G36*
G01*
X151750001Y-79800000D02*
X150849999Y-79800000D01*
G75*
G02*
X150600000Y-79550001I0J249999D01*
G01*
X150600000Y-78849999D01*
G75*
G02*
X150849999Y-78600000I249999J0D01*
G01*
X151750001Y-78600000D01*
G75*
G02*
X152000000Y-78849999I0J-249999D01*
G01*
X152000000Y-79550001D01*
G75*
G02*
X151750001Y-79800000I-249999J0D01*
G01*
G37*
G36*
G01*
X151750001Y-81800000D02*
X150849999Y-81800000D01*
G75*
G02*
X150600000Y-81550001I0J249999D01*
G01*
X150600000Y-80849999D01*
G75*
G02*
X150849999Y-80600000I249999J0D01*
G01*
X151750001Y-80600000D01*
G75*
G02*
X152000000Y-80849999I0J-249999D01*
G01*
X152000000Y-81550001D01*
G75*
G02*
X151750001Y-81800000I-249999J0D01*
G01*
G37*
G04 #@! TD*
G04 #@! TO.C,22R*
G36*
G01*
X141050001Y-79800000D02*
X140149999Y-79800000D01*
G75*
G02*
X139900000Y-79550001I0J249999D01*
G01*
X139900000Y-78849999D01*
G75*
G02*
X140149999Y-78600000I249999J0D01*
G01*
X141050001Y-78600000D01*
G75*
G02*
X141300000Y-78849999I0J-249999D01*
G01*
X141300000Y-79550001D01*
G75*
G02*
X141050001Y-79800000I-249999J0D01*
G01*
G37*
G36*
G01*
X141050001Y-81800000D02*
X140149999Y-81800000D01*
G75*
G02*
X139900000Y-81550001I0J249999D01*
G01*
X139900000Y-80849999D01*
G75*
G02*
X140149999Y-80600000I249999J0D01*
G01*
X141050001Y-80600000D01*
G75*
G02*
X141300000Y-80849999I0J-249999D01*
G01*
X141300000Y-81550001D01*
G75*
G02*
X141050001Y-81800000I-249999J0D01*
G01*
G37*
G04 #@! TD*
G04 #@! TO.C,22R*
G36*
G01*
X144550001Y-79800000D02*
X143649999Y-79800000D01*
G75*
G02*
X143400000Y-79550001I0J249999D01*
G01*
X143400000Y-78849999D01*
G75*
G02*
X143649999Y-78600000I249999J0D01*
G01*
X144550001Y-78600000D01*
G75*
G02*
X144800000Y-78849999I0J-249999D01*
G01*
X144800000Y-79550001D01*
G75*
G02*
X144550001Y-79800000I-249999J0D01*
G01*
G37*
G36*
G01*
X144550001Y-81800000D02*
X143649999Y-81800000D01*
G75*
G02*
X143400000Y-81550001I0J249999D01*
G01*
X143400000Y-80849999D01*
G75*
G02*
X143649999Y-80600000I249999J0D01*
G01*
X144550001Y-80600000D01*
G75*
G02*
X144800000Y-80849999I0J-249999D01*
G01*
X144800000Y-81550001D01*
G75*
G02*
X144550001Y-81800000I-249999J0D01*
G01*
G37*
G04 #@! TD*
D25*
G04 #@! TO.C,D7*
X119300000Y-93650000D03*
X119300000Y-96950000D03*
G04 #@! TD*
G04 #@! TO.C,D6*
X119400000Y-75050000D03*
X119400000Y-78350000D03*
G04 #@! TD*
G04 #@! TO.C,D5*
X100200000Y-93650000D03*
X100200000Y-96950000D03*
G04 #@! TD*
G04 #@! TO.C,D4*
X100300000Y-75050000D03*
X100300000Y-78350000D03*
G04 #@! TD*
G04 #@! TO.C,D3*
X81200000Y-93650000D03*
X81200000Y-96950000D03*
G04 #@! TD*
G04 #@! TO.C,D2*
X81200000Y-75050000D03*
X81200000Y-78350000D03*
G04 #@! TD*
G04 #@! TO.C,1uf*
G36*
G01*
X148275000Y-79750000D02*
X147325000Y-79750000D01*
G75*
G02*
X147075000Y-79500000I0J250000D01*
G01*
X147075000Y-78825000D01*
G75*
G02*
X147325000Y-78575000I250000J0D01*
G01*
X148275000Y-78575000D01*
G75*
G02*
X148525000Y-78825000I0J-250000D01*
G01*
X148525000Y-79500000D01*
G75*
G02*
X148275000Y-79750000I-250000J0D01*
G01*
G37*
G36*
G01*
X148275000Y-81825000D02*
X147325000Y-81825000D01*
G75*
G02*
X147075000Y-81575000I0J250000D01*
G01*
X147075000Y-80900000D01*
G75*
G02*
X147325000Y-80650000I250000J0D01*
G01*
X148275000Y-80650000D01*
G75*
G02*
X148525000Y-80900000I0J-250000D01*
G01*
X148525000Y-81575000D01*
G75*
G02*
X148275000Y-81825000I-250000J0D01*
G01*
G37*
G04 #@! TD*
G04 #@! TO.C,22pf*
G36*
G01*
X152450000Y-105375000D02*
X152450000Y-104425000D01*
G75*
G02*
X152700000Y-104175000I250000J0D01*
G01*
X153375000Y-104175000D01*
G75*
G02*
X153625000Y-104425000I0J-250000D01*
G01*
X153625000Y-105375000D01*
G75*
G02*
X153375000Y-105625000I-250000J0D01*
G01*
X152700000Y-105625000D01*
G75*
G02*
X152450000Y-105375000I0J250000D01*
G01*
G37*
G36*
G01*
X150375000Y-105375000D02*
X150375000Y-104425000D01*
G75*
G02*
X150625000Y-104175000I250000J0D01*
G01*
X151300000Y-104175000D01*
G75*
G02*
X151550000Y-104425000I0J-250000D01*
G01*
X151550000Y-105375000D01*
G75*
G02*
X151300000Y-105625000I-250000J0D01*
G01*
X150625000Y-105625000D01*
G75*
G02*
X150375000Y-105375000I0J250000D01*
G01*
G37*
G04 #@! TD*
G04 #@! TO.C,22pf*
G36*
G01*
X144612500Y-104425000D02*
X144612500Y-105375000D01*
G75*
G02*
X144362500Y-105625000I-250000J0D01*
G01*
X143687500Y-105625000D01*
G75*
G02*
X143437500Y-105375000I0J250000D01*
G01*
X143437500Y-104425000D01*
G75*
G02*
X143687500Y-104175000I250000J0D01*
G01*
X144362500Y-104175000D01*
G75*
G02*
X144612500Y-104425000I0J-250000D01*
G01*
G37*
G36*
G01*
X146687500Y-104425000D02*
X146687500Y-105375000D01*
G75*
G02*
X146437500Y-105625000I-250000J0D01*
G01*
X145762500Y-105625000D01*
G75*
G02*
X145512500Y-105375000I0J250000D01*
G01*
X145512500Y-104425000D01*
G75*
G02*
X145762500Y-104175000I250000J0D01*
G01*
X146437500Y-104175000D01*
G75*
G02*
X146687500Y-104425000I0J-250000D01*
G01*
G37*
G04 #@! TD*
G04 #@! TO.C,10uf*
G36*
G01*
X140350000Y-89925000D02*
X140350000Y-90875000D01*
G75*
G02*
X140100000Y-91125000I-250000J0D01*
G01*
X139425000Y-91125000D01*
G75*
G02*
X139175000Y-90875000I0J250000D01*
G01*
X139175000Y-89925000D01*
G75*
G02*
X139425000Y-89675000I250000J0D01*
G01*
X140100000Y-89675000D01*
G75*
G02*
X140350000Y-89925000I0J-250000D01*
G01*
G37*
G36*
G01*
X142425000Y-89925000D02*
X142425000Y-90875000D01*
G75*
G02*
X142175000Y-91125000I-250000J0D01*
G01*
X141500000Y-91125000D01*
G75*
G02*
X141250000Y-90875000I0J250000D01*
G01*
X141250000Y-89925000D01*
G75*
G02*
X141500000Y-89675000I250000J0D01*
G01*
X142175000Y-89675000D01*
G75*
G02*
X142425000Y-89925000I0J-250000D01*
G01*
G37*
G04 #@! TD*
G04 #@! TO.C,0.1uf*
G36*
G01*
X158525000Y-96450000D02*
X159475000Y-96450000D01*
G75*
G02*
X159725000Y-96700000I0J-250000D01*
G01*
X159725000Y-97375000D01*
G75*
G02*
X159475000Y-97625000I-250000J0D01*
G01*
X158525000Y-97625000D01*
G75*
G02*
X158275000Y-97375000I0J250000D01*
G01*
X158275000Y-96700000D01*
G75*
G02*
X158525000Y-96450000I250000J0D01*
G01*
G37*
G36*
G01*
X158525000Y-94375000D02*
X159475000Y-94375000D01*
G75*
G02*
X159725000Y-94625000I0J-250000D01*
G01*
X159725000Y-95300000D01*
G75*
G02*
X159475000Y-95550000I-250000J0D01*
G01*
X158525000Y-95550000D01*
G75*
G02*
X158275000Y-95300000I0J250000D01*
G01*
X158275000Y-94625000D01*
G75*
G02*
X158525000Y-94375000I250000J0D01*
G01*
G37*
G04 #@! TD*
G04 #@! TO.C,0.1uf*
G36*
G01*
X140350000Y-93125000D02*
X140350000Y-94075000D01*
G75*
G02*
X140100000Y-94325000I-250000J0D01*
G01*
X139425000Y-94325000D01*
G75*
G02*
X139175000Y-94075000I0J250000D01*
G01*
X139175000Y-93125000D01*
G75*
G02*
X139425000Y-92875000I250000J0D01*
G01*
X140100000Y-92875000D01*
G75*
G02*
X140350000Y-93125000I0J-250000D01*
G01*
G37*
G36*
G01*
X142425000Y-93125000D02*
X142425000Y-94075000D01*
G75*
G02*
X142175000Y-94325000I-250000J0D01*
G01*
X141500000Y-94325000D01*
G75*
G02*
X141250000Y-94075000I0J250000D01*
G01*
X141250000Y-93125000D01*
G75*
G02*
X141500000Y-92875000I250000J0D01*
G01*
X142175000Y-92875000D01*
G75*
G02*
X142425000Y-93125000I0J-250000D01*
G01*
G37*
G04 #@! TD*
M02*
