G04 #@! TF.GenerationSoftware,KiCad,Pcbnew,(5.1.9)-1*
G04 #@! TF.CreationDate,2021-03-12T14:24:21+01:00*
G04 #@! TF.ProjectId,case_keypad,63617365-5f6b-4657-9970-61642e6b6963,rev?*
G04 #@! TF.SameCoordinates,Original*
G04 #@! TF.FileFunction,Soldermask,Bot*
G04 #@! TF.FilePolarity,Negative*
%FSLAX46Y46*%
G04 Gerber Fmt 4.6, Leading zero omitted, Abs format (unit mm)*
G04 Created by KiCad (PCBNEW (5.1.9)-1) date 2021-03-12 14:24:21*
%MOMM*%
%LPD*%
G01*
G04 APERTURE LIST*
%ADD10C,5.600000*%
%ADD11C,0.700000*%
%ADD12O,1.050000X2.100000*%
%ADD13C,1.500000*%
%ADD14C,1.700000*%
%ADD15C,4.000000*%
%ADD16C,2.200000*%
%ADD17R,2.000000X2.000000*%
%ADD18C,2.000000*%
%ADD19R,2.000000X3.200000*%
G04 APERTURE END LIST*
D10*
G04 #@! TO.C,REF\u002A\u002A*
X77500000Y-102000000D03*
G04 #@! TD*
G04 #@! TO.C,REF\u002A\u002A*
X77500000Y-67000000D03*
G04 #@! TD*
G04 #@! TO.C,REF\u002A\u002A*
X159000000Y-102000000D03*
G04 #@! TD*
G04 #@! TO.C,REF\u002A\u002A*
X159000000Y-67000000D03*
G04 #@! TD*
D11*
G04 #@! TO.C,J1*
X147360000Y-67650000D03*
X153140000Y-67650000D03*
D12*
X145930000Y-64000000D03*
X154570000Y-64000000D03*
X145930000Y-68180000D03*
X154570000Y-68180000D03*
G04 #@! TD*
D13*
G04 #@! TO.C,16 MHz*
X150980000Y-99800000D03*
X146100000Y-99800000D03*
G04 #@! TD*
D14*
G04 #@! TO.C,SW9*
X133940000Y-95880000D03*
X123780000Y-95880000D03*
D15*
X128860000Y-95880000D03*
D16*
X125050000Y-93340000D03*
X131400000Y-90800000D03*
G04 #@! TD*
D14*
G04 #@! TO.C,SW8*
X133940000Y-76780000D03*
X123780000Y-76780000D03*
D15*
X128860000Y-76780000D03*
D16*
X125050000Y-74240000D03*
X131400000Y-71700000D03*
G04 #@! TD*
D14*
G04 #@! TO.C,SW6*
X114840000Y-95780000D03*
X104680000Y-95780000D03*
D15*
X109760000Y-95780000D03*
D16*
X105950000Y-93240000D03*
X112300000Y-90700000D03*
G04 #@! TD*
D14*
G04 #@! TO.C,SW5*
X114840000Y-76780000D03*
X104680000Y-76780000D03*
D15*
X109760000Y-76780000D03*
D16*
X105950000Y-74240000D03*
X112300000Y-71700000D03*
G04 #@! TD*
D14*
G04 #@! TO.C,SW4*
X95780000Y-95800000D03*
X85620000Y-95800000D03*
D15*
X90700000Y-95800000D03*
D16*
X86890000Y-93260000D03*
X93240000Y-90720000D03*
G04 #@! TD*
D14*
G04 #@! TO.C,SW3*
X95840000Y-76780000D03*
X85680000Y-76780000D03*
D15*
X90760000Y-76780000D03*
D16*
X86950000Y-74240000D03*
X93300000Y-71700000D03*
G04 #@! TD*
D17*
G04 #@! TO.C,SW7*
X126400000Y-84200000D03*
D18*
X128900000Y-84200000D03*
X131400000Y-84200000D03*
D19*
X123300000Y-76700000D03*
X134500000Y-76700000D03*
D18*
X126400000Y-69700000D03*
X131400000Y-69700000D03*
G04 #@! TD*
D17*
G04 #@! TO.C,SW2*
X88300000Y-84200000D03*
D18*
X90800000Y-84200000D03*
X93300000Y-84200000D03*
D19*
X85200000Y-76700000D03*
X96400000Y-76700000D03*
D18*
X88300000Y-69700000D03*
X93300000Y-69700000D03*
G04 #@! TD*
M02*
