G04 #@! TF.GenerationSoftware,KiCad,Pcbnew,(5.1.9)-1*
G04 #@! TF.CreationDate,2021-03-12T14:24:20+01:00*
G04 #@! TF.ProjectId,case_keypad,63617365-5f6b-4657-9970-61642e6b6963,rev?*
G04 #@! TF.SameCoordinates,Original*
G04 #@! TF.FileFunction,Legend,Top*
G04 #@! TF.FilePolarity,Positive*
%FSLAX46Y46*%
G04 Gerber Fmt 4.6, Leading zero omitted, Abs format (unit mm)*
G04 Created by KiCad (PCBNEW (5.1.9)-1) date 2021-03-12 14:24:20*
%MOMM*%
%LPD*%
G01*
G04 APERTURE LIST*
%ADD10C,0.120000*%
%ADD11C,0.150000*%
%ADD12C,0.127000*%
%ADD13C,0.200000*%
%ADD14C,0.010000*%
%ADD15C,0.100000*%
G04 APERTURE END LIST*
D10*
X147000000Y-93750000D02*
G75*
G03*
X147000000Y-93750000I-250000J0D01*
G01*
D11*
X85071428Y-66728571D02*
X85014285Y-66785714D01*
X84842857Y-66842857D01*
X84728571Y-66842857D01*
X84557142Y-66785714D01*
X84442857Y-66671428D01*
X84385714Y-66557142D01*
X84328571Y-66328571D01*
X84328571Y-66157142D01*
X84385714Y-65928571D01*
X84442857Y-65814285D01*
X84557142Y-65700000D01*
X84728571Y-65642857D01*
X84842857Y-65642857D01*
X85014285Y-65700000D01*
X85071428Y-65757142D01*
X85528571Y-66500000D02*
X86100000Y-66500000D01*
X85414285Y-66842857D02*
X85814285Y-65642857D01*
X86214285Y-66842857D01*
X86557142Y-66785714D02*
X86728571Y-66842857D01*
X87014285Y-66842857D01*
X87128571Y-66785714D01*
X87185714Y-66728571D01*
X87242857Y-66614285D01*
X87242857Y-66500000D01*
X87185714Y-66385714D01*
X87128571Y-66328571D01*
X87014285Y-66271428D01*
X86785714Y-66214285D01*
X86671428Y-66157142D01*
X86614285Y-66100000D01*
X86557142Y-65985714D01*
X86557142Y-65871428D01*
X86614285Y-65757142D01*
X86671428Y-65700000D01*
X86785714Y-65642857D01*
X87071428Y-65642857D01*
X87242857Y-65700000D01*
X87757142Y-66214285D02*
X88157142Y-66214285D01*
X88328571Y-66842857D02*
X87757142Y-66842857D01*
X87757142Y-65642857D01*
X88328571Y-65642857D01*
X89757142Y-66842857D02*
X89757142Y-65642857D01*
X90442857Y-66842857D02*
X89928571Y-66157142D01*
X90442857Y-65642857D02*
X89757142Y-66328571D01*
X91414285Y-66785714D02*
X91300000Y-66842857D01*
X91071428Y-66842857D01*
X90957142Y-66785714D01*
X90900000Y-66671428D01*
X90900000Y-66214285D01*
X90957142Y-66100000D01*
X91071428Y-66042857D01*
X91300000Y-66042857D01*
X91414285Y-66100000D01*
X91471428Y-66214285D01*
X91471428Y-66328571D01*
X90900000Y-66442857D01*
X91871428Y-66042857D02*
X92157142Y-66842857D01*
X92442857Y-66042857D02*
X92157142Y-66842857D01*
X92042857Y-67128571D01*
X91985714Y-67185714D01*
X91871428Y-67242857D01*
X92900000Y-66042857D02*
X92900000Y-67242857D01*
X92900000Y-66100000D02*
X93014285Y-66042857D01*
X93242857Y-66042857D01*
X93357142Y-66100000D01*
X93414285Y-66157142D01*
X93471428Y-66271428D01*
X93471428Y-66614285D01*
X93414285Y-66728571D01*
X93357142Y-66785714D01*
X93242857Y-66842857D01*
X93014285Y-66842857D01*
X92900000Y-66785714D01*
X94500000Y-66842857D02*
X94500000Y-66214285D01*
X94442857Y-66100000D01*
X94328571Y-66042857D01*
X94100000Y-66042857D01*
X93985714Y-66100000D01*
X94500000Y-66785714D02*
X94385714Y-66842857D01*
X94100000Y-66842857D01*
X93985714Y-66785714D01*
X93928571Y-66671428D01*
X93928571Y-66557142D01*
X93985714Y-66442857D01*
X94100000Y-66385714D01*
X94385714Y-66385714D01*
X94500000Y-66328571D01*
X95585714Y-66842857D02*
X95585714Y-65642857D01*
X95585714Y-66785714D02*
X95471428Y-66842857D01*
X95242857Y-66842857D01*
X95128571Y-66785714D01*
X95071428Y-66728571D01*
X95014285Y-66614285D01*
X95014285Y-66271428D01*
X95071428Y-66157142D01*
X95128571Y-66100000D01*
X95242857Y-66042857D01*
X95471428Y-66042857D01*
X95585714Y-66100000D01*
X97071428Y-66842857D02*
X97071428Y-65642857D01*
X97757142Y-66842857D02*
X97242857Y-66157142D01*
X97757142Y-65642857D02*
X97071428Y-66328571D01*
X98271428Y-66842857D02*
X98271428Y-66042857D01*
X98271428Y-65642857D02*
X98214285Y-65700000D01*
X98271428Y-65757142D01*
X98328571Y-65700000D01*
X98271428Y-65642857D01*
X98271428Y-65757142D01*
X98671428Y-66042857D02*
X99128571Y-66042857D01*
X98842857Y-65642857D02*
X98842857Y-66671428D01*
X98900000Y-66785714D01*
X99014285Y-66842857D01*
X99128571Y-66842857D01*
X100442857Y-66842857D02*
X100442857Y-66042857D01*
X100442857Y-66271428D02*
X100500000Y-66157142D01*
X100557142Y-66100000D01*
X100671428Y-66042857D01*
X100785714Y-66042857D01*
X101642857Y-66785714D02*
X101528571Y-66842857D01*
X101300000Y-66842857D01*
X101185714Y-66785714D01*
X101128571Y-66671428D01*
X101128571Y-66214285D01*
X101185714Y-66100000D01*
X101300000Y-66042857D01*
X101528571Y-66042857D01*
X101642857Y-66100000D01*
X101700000Y-66214285D01*
X101700000Y-66328571D01*
X101128571Y-66442857D01*
X102100000Y-66042857D02*
X102385714Y-66842857D01*
X102671428Y-66042857D01*
X103757142Y-66842857D02*
X103071428Y-66842857D01*
X103414285Y-66842857D02*
X103414285Y-65642857D01*
X103300000Y-65814285D01*
X103185714Y-65928571D01*
X103071428Y-65985714D01*
X104271428Y-66728571D02*
X104328571Y-66785714D01*
X104271428Y-66842857D01*
X104214285Y-66785714D01*
X104271428Y-66728571D01*
X104271428Y-66842857D01*
X105471428Y-66842857D02*
X104785714Y-66842857D01*
X105128571Y-66842857D02*
X105128571Y-65642857D01*
X105014285Y-65814285D01*
X104900000Y-65928571D01*
X104785714Y-65985714D01*
D12*
G04 #@! TO.C,J1*
X154720000Y-66810000D02*
X154720000Y-65370000D01*
X145780000Y-66810000D02*
X145780000Y-65370000D01*
X145780000Y-62630000D02*
X145780000Y-61400000D01*
X145780000Y-61400000D02*
X154720000Y-61400000D01*
X154720000Y-61400000D02*
X154720000Y-62630000D01*
D13*
X153750000Y-70750000D02*
G75*
G03*
X153750000Y-70750000I-100000J0D01*
G01*
D14*
G04 #@! TO.C,G\u002A\u002A\u002A*
G36*
X138541599Y-67481200D02*
G01*
X138162673Y-67481200D01*
X138034257Y-67481600D01*
X137935887Y-67482952D01*
X137863750Y-67485480D01*
X137814032Y-67489407D01*
X137782921Y-67494959D01*
X137766604Y-67502359D01*
X137764288Y-67504645D01*
X137755821Y-67531396D01*
X137750609Y-67588121D01*
X137748583Y-67676099D01*
X137749515Y-67787801D01*
X137751451Y-67886659D01*
X137753718Y-67957063D01*
X137757220Y-68004419D01*
X137762861Y-68034134D01*
X137771546Y-68051616D01*
X137784179Y-68062271D01*
X137796533Y-68068905D01*
X137826059Y-68077132D01*
X137879467Y-68083270D01*
X137959320Y-68087458D01*
X138068183Y-68089839D01*
X138190233Y-68090550D01*
X138541599Y-68090800D01*
X138541599Y-68209333D01*
X138156366Y-68208961D01*
X138029474Y-68208568D01*
X137931544Y-68207432D01*
X137857672Y-68205205D01*
X137802957Y-68201537D01*
X137762495Y-68196080D01*
X137731385Y-68188486D01*
X137704722Y-68178405D01*
X137700532Y-68176534D01*
X137661418Y-68156961D01*
X137632261Y-68135376D01*
X137611607Y-68106761D01*
X137598001Y-68066095D01*
X137589988Y-68008359D01*
X137586112Y-67928534D01*
X137584919Y-67821601D01*
X137584866Y-67777533D01*
X137584955Y-67662871D01*
X137587493Y-67571202D01*
X137595889Y-67499890D01*
X137613553Y-67446300D01*
X137643893Y-67407796D01*
X137690318Y-67381743D01*
X137756237Y-67365505D01*
X137845059Y-67356446D01*
X137960192Y-67351931D01*
X138105046Y-67349325D01*
X138139433Y-67348776D01*
X138541599Y-67342211D01*
X138541599Y-67481200D01*
G37*
X138541599Y-67481200D02*
X138162673Y-67481200D01*
X138034257Y-67481600D01*
X137935887Y-67482952D01*
X137863750Y-67485480D01*
X137814032Y-67489407D01*
X137782921Y-67494959D01*
X137766604Y-67502359D01*
X137764288Y-67504645D01*
X137755821Y-67531396D01*
X137750609Y-67588121D01*
X137748583Y-67676099D01*
X137749515Y-67787801D01*
X137751451Y-67886659D01*
X137753718Y-67957063D01*
X137757220Y-68004419D01*
X137762861Y-68034134D01*
X137771546Y-68051616D01*
X137784179Y-68062271D01*
X137796533Y-68068905D01*
X137826059Y-68077132D01*
X137879467Y-68083270D01*
X137959320Y-68087458D01*
X138068183Y-68089839D01*
X138190233Y-68090550D01*
X138541599Y-68090800D01*
X138541599Y-68209333D01*
X138156366Y-68208961D01*
X138029474Y-68208568D01*
X137931544Y-68207432D01*
X137857672Y-68205205D01*
X137802957Y-68201537D01*
X137762495Y-68196080D01*
X137731385Y-68188486D01*
X137704722Y-68178405D01*
X137700532Y-68176534D01*
X137661418Y-68156961D01*
X137632261Y-68135376D01*
X137611607Y-68106761D01*
X137598001Y-68066095D01*
X137589988Y-68008359D01*
X137586112Y-67928534D01*
X137584919Y-67821601D01*
X137584866Y-67777533D01*
X137584955Y-67662871D01*
X137587493Y-67571202D01*
X137595889Y-67499890D01*
X137613553Y-67446300D01*
X137643893Y-67407796D01*
X137690318Y-67381743D01*
X137756237Y-67365505D01*
X137845059Y-67356446D01*
X137960192Y-67351931D01*
X138105046Y-67349325D01*
X138139433Y-67348776D01*
X138541599Y-67342211D01*
X138541599Y-67481200D01*
G36*
X138846400Y-68209333D02*
G01*
X138660133Y-68209333D01*
X138660133Y-68056933D01*
X138846400Y-68056933D01*
X138846400Y-68209333D01*
G37*
X138846400Y-68209333D02*
X138660133Y-68209333D01*
X138660133Y-68056933D01*
X138846400Y-68056933D01*
X138846400Y-68209333D01*
G36*
X139600126Y-67355836D02*
G01*
X139629414Y-67375366D01*
X139645287Y-67396864D01*
X139677023Y-67442804D01*
X139721986Y-67509262D01*
X139777539Y-67592312D01*
X139841045Y-67688030D01*
X139909867Y-67792491D01*
X139919498Y-67807166D01*
X140183319Y-68209333D01*
X140006333Y-68209267D01*
X139789055Y-67870633D01*
X139727653Y-67775652D01*
X139672028Y-67690966D01*
X139624836Y-67620510D01*
X139588733Y-67568216D01*
X139566374Y-67538016D01*
X139560455Y-67532097D01*
X139548461Y-67545728D01*
X139520860Y-67583952D01*
X139480322Y-67642850D01*
X139429518Y-67718507D01*
X139371119Y-67807003D01*
X139329568Y-67870764D01*
X139110004Y-68209333D01*
X138930740Y-68209333D01*
X139218933Y-67777533D01*
X139300801Y-67655191D01*
X139366363Y-67558249D01*
X139417890Y-67483790D01*
X139457653Y-67428898D01*
X139487923Y-67390655D01*
X139510971Y-67366144D01*
X139529068Y-67352449D01*
X139544485Y-67346653D01*
X139555138Y-67345733D01*
X139600126Y-67355836D01*
G37*
X139600126Y-67355836D02*
X139629414Y-67375366D01*
X139645287Y-67396864D01*
X139677023Y-67442804D01*
X139721986Y-67509262D01*
X139777539Y-67592312D01*
X139841045Y-67688030D01*
X139909867Y-67792491D01*
X139919498Y-67807166D01*
X140183319Y-68209333D01*
X140006333Y-68209267D01*
X139789055Y-67870633D01*
X139727653Y-67775652D01*
X139672028Y-67690966D01*
X139624836Y-67620510D01*
X139588733Y-67568216D01*
X139566374Y-67538016D01*
X139560455Y-67532097D01*
X139548461Y-67545728D01*
X139520860Y-67583952D01*
X139480322Y-67642850D01*
X139429518Y-67718507D01*
X139371119Y-67807003D01*
X139329568Y-67870764D01*
X139110004Y-68209333D01*
X138930740Y-68209333D01*
X139218933Y-67777533D01*
X139300801Y-67655191D01*
X139366363Y-67558249D01*
X139417890Y-67483790D01*
X139457653Y-67428898D01*
X139487923Y-67390655D01*
X139510971Y-67366144D01*
X139529068Y-67352449D01*
X139544485Y-67346653D01*
X139555138Y-67345733D01*
X139600126Y-67355836D01*
G36*
X140455066Y-68209333D02*
G01*
X140268800Y-68209333D01*
X140268800Y-68056933D01*
X140455066Y-68056933D01*
X140455066Y-68209333D01*
G37*
X140455066Y-68209333D02*
X140268800Y-68209333D01*
X140268800Y-68056933D01*
X140455066Y-68056933D01*
X140455066Y-68209333D01*
G36*
X141572666Y-67481200D02*
G01*
X141184409Y-67481200D01*
X141056954Y-67481494D01*
X140959170Y-67482558D01*
X140886863Y-67484660D01*
X140835841Y-67488069D01*
X140801913Y-67493054D01*
X140780884Y-67499883D01*
X140769542Y-67507809D01*
X140747033Y-67551749D01*
X140745829Y-67608113D01*
X140760462Y-67651646D01*
X140768977Y-67663509D01*
X140783196Y-67672111D01*
X140808071Y-67677971D01*
X140848556Y-67681610D01*
X140909601Y-67683546D01*
X140996161Y-67684299D01*
X141072895Y-67684400D01*
X141213336Y-67685605D01*
X141324281Y-67689713D01*
X141410033Y-67697464D01*
X141474894Y-67709596D01*
X141523165Y-67726850D01*
X141559148Y-67749965D01*
X141580737Y-67771684D01*
X141604358Y-67804804D01*
X141617361Y-67840771D01*
X141622702Y-67891153D01*
X141623466Y-67938902D01*
X141618550Y-68030938D01*
X141602090Y-68096828D01*
X141571516Y-68143080D01*
X141531269Y-68172503D01*
X141510591Y-68181442D01*
X141482151Y-68188502D01*
X141441754Y-68193970D01*
X141385204Y-68198138D01*
X141308305Y-68201293D01*
X141206862Y-68203727D01*
X141076678Y-68205726D01*
X141043499Y-68206140D01*
X140607466Y-68211414D01*
X140607466Y-68090800D01*
X140992699Y-68090550D01*
X141130533Y-68090208D01*
X141238281Y-68088696D01*
X141319726Y-68084983D01*
X141378648Y-68078040D01*
X141418831Y-68066836D01*
X141444054Y-68050341D01*
X141458100Y-68027526D01*
X141464750Y-67997360D01*
X141467648Y-67961179D01*
X141469325Y-67913525D01*
X141465198Y-67878001D01*
X141451038Y-67852825D01*
X141422617Y-67836217D01*
X141375707Y-67826399D01*
X141306081Y-67821589D01*
X141209510Y-67820007D01*
X141132023Y-67819866D01*
X140992765Y-67818593D01*
X140882953Y-67814268D01*
X140798246Y-67806131D01*
X140734302Y-67793421D01*
X140686779Y-67775379D01*
X140651336Y-67751246D01*
X140633262Y-67732582D01*
X140607480Y-67695062D01*
X140594532Y-67653052D01*
X140590585Y-67593023D01*
X140590533Y-67581767D01*
X140593028Y-67520093D01*
X140603271Y-67478652D01*
X140625404Y-67444006D01*
X140637100Y-67430586D01*
X140664690Y-67405513D01*
X140699304Y-67385752D01*
X140744976Y-67370716D01*
X140805741Y-67359815D01*
X140885634Y-67352463D01*
X140988690Y-67348072D01*
X141118944Y-67346052D01*
X141219377Y-67345733D01*
X141572666Y-67345733D01*
X141572666Y-67481200D01*
G37*
X141572666Y-67481200D02*
X141184409Y-67481200D01*
X141056954Y-67481494D01*
X140959170Y-67482558D01*
X140886863Y-67484660D01*
X140835841Y-67488069D01*
X140801913Y-67493054D01*
X140780884Y-67499883D01*
X140769542Y-67507809D01*
X140747033Y-67551749D01*
X140745829Y-67608113D01*
X140760462Y-67651646D01*
X140768977Y-67663509D01*
X140783196Y-67672111D01*
X140808071Y-67677971D01*
X140848556Y-67681610D01*
X140909601Y-67683546D01*
X140996161Y-67684299D01*
X141072895Y-67684400D01*
X141213336Y-67685605D01*
X141324281Y-67689713D01*
X141410033Y-67697464D01*
X141474894Y-67709596D01*
X141523165Y-67726850D01*
X141559148Y-67749965D01*
X141580737Y-67771684D01*
X141604358Y-67804804D01*
X141617361Y-67840771D01*
X141622702Y-67891153D01*
X141623466Y-67938902D01*
X141618550Y-68030938D01*
X141602090Y-68096828D01*
X141571516Y-68143080D01*
X141531269Y-68172503D01*
X141510591Y-68181442D01*
X141482151Y-68188502D01*
X141441754Y-68193970D01*
X141385204Y-68198138D01*
X141308305Y-68201293D01*
X141206862Y-68203727D01*
X141076678Y-68205726D01*
X141043499Y-68206140D01*
X140607466Y-68211414D01*
X140607466Y-68090800D01*
X140992699Y-68090550D01*
X141130533Y-68090208D01*
X141238281Y-68088696D01*
X141319726Y-68084983D01*
X141378648Y-68078040D01*
X141418831Y-68066836D01*
X141444054Y-68050341D01*
X141458100Y-68027526D01*
X141464750Y-67997360D01*
X141467648Y-67961179D01*
X141469325Y-67913525D01*
X141465198Y-67878001D01*
X141451038Y-67852825D01*
X141422617Y-67836217D01*
X141375707Y-67826399D01*
X141306081Y-67821589D01*
X141209510Y-67820007D01*
X141132023Y-67819866D01*
X140992765Y-67818593D01*
X140882953Y-67814268D01*
X140798246Y-67806131D01*
X140734302Y-67793421D01*
X140686779Y-67775379D01*
X140651336Y-67751246D01*
X140633262Y-67732582D01*
X140607480Y-67695062D01*
X140594532Y-67653052D01*
X140590585Y-67593023D01*
X140590533Y-67581767D01*
X140593028Y-67520093D01*
X140603271Y-67478652D01*
X140625404Y-67444006D01*
X140637100Y-67430586D01*
X140664690Y-67405513D01*
X140699304Y-67385752D01*
X140744976Y-67370716D01*
X140805741Y-67359815D01*
X140885634Y-67352463D01*
X140988690Y-67348072D01*
X141118944Y-67346052D01*
X141219377Y-67345733D01*
X141572666Y-67345733D01*
X141572666Y-67481200D01*
G36*
X141911333Y-68209333D02*
G01*
X141725066Y-68209333D01*
X141725066Y-68056933D01*
X141911333Y-68056933D01*
X141911333Y-68209333D01*
G37*
X141911333Y-68209333D02*
X141725066Y-68209333D01*
X141725066Y-68056933D01*
X141911333Y-68056933D01*
X141911333Y-68209333D01*
G36*
X142516700Y-67349680D02*
G01*
X142952733Y-67354200D01*
X142957988Y-67417700D01*
X142963244Y-67481200D01*
X142231450Y-67481200D01*
X142236491Y-67587033D01*
X142241533Y-67692866D01*
X142585479Y-67697453D01*
X142929426Y-67702041D01*
X142924146Y-67756720D01*
X142918866Y-67811400D01*
X142575966Y-67815983D01*
X142233066Y-67820567D01*
X142233066Y-68090800D01*
X142961200Y-68090800D01*
X142961200Y-68209333D01*
X142080666Y-68209333D01*
X142080666Y-67345161D01*
X142516700Y-67349680D01*
G37*
X142516700Y-67349680D02*
X142952733Y-67354200D01*
X142957988Y-67417700D01*
X142963244Y-67481200D01*
X142231450Y-67481200D01*
X142236491Y-67587033D01*
X142241533Y-67692866D01*
X142585479Y-67697453D01*
X142929426Y-67702041D01*
X142924146Y-67756720D01*
X142918866Y-67811400D01*
X142575966Y-67815983D01*
X142233066Y-67820567D01*
X142233066Y-68090800D01*
X142961200Y-68090800D01*
X142961200Y-68209333D01*
X142080666Y-68209333D01*
X142080666Y-67345161D01*
X142516700Y-67349680D01*
G36*
X139953200Y-62982936D02*
G01*
X139953766Y-63058574D01*
X139956268Y-63106538D01*
X139961910Y-63133013D01*
X139971896Y-63144184D01*
X139984993Y-63146266D01*
X140019563Y-63155704D01*
X140043480Y-63187431D01*
X140060127Y-63246570D01*
X140063318Y-63264799D01*
X140083774Y-63352773D01*
X140112267Y-63408034D01*
X140150285Y-63431101D01*
X140199319Y-63422489D01*
X140260856Y-63382715D01*
X140301096Y-63347247D01*
X140392964Y-63260362D01*
X140482115Y-63314663D01*
X140539710Y-63351340D01*
X140593158Y-63388003D01*
X140619807Y-63407991D01*
X140668347Y-63447019D01*
X140632507Y-63542811D01*
X140604883Y-63629870D01*
X140598044Y-63691768D01*
X140613262Y-63731022D01*
X140651804Y-63750151D01*
X140714942Y-63751671D01*
X140736683Y-63749350D01*
X140813531Y-63739546D01*
X140864655Y-63735927D01*
X140898102Y-63742173D01*
X140921922Y-63761964D01*
X140944164Y-63798980D01*
X140972877Y-63856902D01*
X140973158Y-63857466D01*
X141002465Y-63919431D01*
X141024632Y-63972184D01*
X141035940Y-64006671D01*
X141036658Y-64012065D01*
X141024062Y-64035566D01*
X140990772Y-64070688D01*
X140943982Y-64109842D01*
X140943800Y-64109980D01*
X140891306Y-64152680D01*
X140862401Y-64185654D01*
X140851366Y-64216146D01*
X140850666Y-64227924D01*
X140857383Y-64266626D01*
X140881009Y-64298801D01*
X140926760Y-64328994D01*
X140999852Y-64361750D01*
X141007891Y-64364955D01*
X141105849Y-64403746D01*
X141094603Y-64503139D01*
X141083358Y-64602533D01*
X141189333Y-64602533D01*
X141189333Y-66786933D01*
X141053866Y-66786933D01*
X141053866Y-64721066D01*
X139817733Y-64721066D01*
X139817733Y-64602533D01*
X139953200Y-64602533D01*
X140128926Y-64602533D01*
X140212479Y-64601504D01*
X140268562Y-64597831D01*
X140303527Y-64590636D01*
X140323726Y-64579038D01*
X140327457Y-64575056D01*
X140342036Y-64539855D01*
X140352052Y-64481387D01*
X140357001Y-64410007D01*
X140356383Y-64336072D01*
X140349697Y-64269936D01*
X140343592Y-64241838D01*
X140299032Y-64140797D01*
X140227946Y-64048440D01*
X140137641Y-63971966D01*
X140035427Y-63918577D01*
X140005426Y-63908675D01*
X139953200Y-63893697D01*
X139953200Y-64602533D01*
X139817733Y-64602533D01*
X139817733Y-62960000D01*
X139718842Y-62960000D01*
X139555544Y-62975817D01*
X139391221Y-63021109D01*
X139233606Y-63092635D01*
X139090428Y-63187155D01*
X139011893Y-63256285D01*
X138941041Y-63332577D01*
X138883592Y-63410439D01*
X138837861Y-63494854D01*
X138802161Y-63590805D01*
X138774806Y-63703274D01*
X138754109Y-63837244D01*
X138738385Y-63997698D01*
X138732318Y-64082372D01*
X138721845Y-64222920D01*
X138709628Y-64337531D01*
X138693822Y-64434137D01*
X138672583Y-64520666D01*
X138644067Y-64605049D01*
X138606430Y-64695217D01*
X138573030Y-64767370D01*
X138537736Y-64843759D01*
X138508591Y-64910909D01*
X138488428Y-64961999D01*
X138480076Y-64990207D01*
X138479999Y-64991524D01*
X138496330Y-65029789D01*
X138544913Y-65075658D01*
X138625134Y-65128566D01*
X138635183Y-65134401D01*
X138692287Y-65172138D01*
X138732477Y-65213616D01*
X138760290Y-65266851D01*
X138780264Y-65339863D01*
X138792948Y-65413215D01*
X138811782Y-65524929D01*
X138831725Y-65610128D01*
X138855374Y-65676130D01*
X138885327Y-65730253D01*
X138922261Y-65777647D01*
X139005737Y-65849096D01*
X139118973Y-65907347D01*
X139262406Y-65952547D01*
X139436476Y-65984841D01*
X139593366Y-66001133D01*
X139750000Y-66012859D01*
X139750000Y-66786933D01*
X139615264Y-66786933D01*
X139610665Y-66461565D01*
X139606066Y-66136198D01*
X139453666Y-66117256D01*
X139290928Y-66092582D01*
X139156490Y-66061678D01*
X139045055Y-66022612D01*
X138951331Y-65973448D01*
X138870022Y-65912253D01*
X138854868Y-65898478D01*
X138784000Y-65818224D01*
X138732414Y-65725265D01*
X138696532Y-65612040D01*
X138681054Y-65531244D01*
X138666039Y-65438004D01*
X138652864Y-65371474D01*
X138638081Y-65324912D01*
X138618240Y-65291577D01*
X138589891Y-65264728D01*
X138549587Y-65237623D01*
X138522270Y-65220891D01*
X138454346Y-65175245D01*
X138409386Y-65132909D01*
X138378593Y-65085436D01*
X138376222Y-65080635D01*
X138358000Y-65035941D01*
X138350390Y-64993103D01*
X138354638Y-64945748D01*
X138371988Y-64887502D01*
X138403685Y-64811992D01*
X138446146Y-64722703D01*
X138492118Y-64625476D01*
X138526704Y-64542233D01*
X138552002Y-64464390D01*
X138570111Y-64383362D01*
X138583128Y-64290564D01*
X138593153Y-64177413D01*
X138598367Y-64099959D01*
X138613477Y-63908025D01*
X138633773Y-63745190D01*
X138660909Y-63606873D01*
X138696540Y-63488490D01*
X138742319Y-63385460D01*
X138799901Y-63293201D01*
X138870941Y-63207129D01*
X138948291Y-63130672D01*
X139057467Y-63045529D01*
X139187756Y-62967632D01*
X139326404Y-62903863D01*
X139436733Y-62867116D01*
X139495414Y-62855281D01*
X139576487Y-62844080D01*
X139668485Y-62834898D01*
X139745766Y-62829761D01*
X139953200Y-62819606D01*
X139953200Y-62982936D01*
G37*
X139953200Y-62982936D02*
X139953766Y-63058574D01*
X139956268Y-63106538D01*
X139961910Y-63133013D01*
X139971896Y-63144184D01*
X139984993Y-63146266D01*
X140019563Y-63155704D01*
X140043480Y-63187431D01*
X140060127Y-63246570D01*
X140063318Y-63264799D01*
X140083774Y-63352773D01*
X140112267Y-63408034D01*
X140150285Y-63431101D01*
X140199319Y-63422489D01*
X140260856Y-63382715D01*
X140301096Y-63347247D01*
X140392964Y-63260362D01*
X140482115Y-63314663D01*
X140539710Y-63351340D01*
X140593158Y-63388003D01*
X140619807Y-63407991D01*
X140668347Y-63447019D01*
X140632507Y-63542811D01*
X140604883Y-63629870D01*
X140598044Y-63691768D01*
X140613262Y-63731022D01*
X140651804Y-63750151D01*
X140714942Y-63751671D01*
X140736683Y-63749350D01*
X140813531Y-63739546D01*
X140864655Y-63735927D01*
X140898102Y-63742173D01*
X140921922Y-63761964D01*
X140944164Y-63798980D01*
X140972877Y-63856902D01*
X140973158Y-63857466D01*
X141002465Y-63919431D01*
X141024632Y-63972184D01*
X141035940Y-64006671D01*
X141036658Y-64012065D01*
X141024062Y-64035566D01*
X140990772Y-64070688D01*
X140943982Y-64109842D01*
X140943800Y-64109980D01*
X140891306Y-64152680D01*
X140862401Y-64185654D01*
X140851366Y-64216146D01*
X140850666Y-64227924D01*
X140857383Y-64266626D01*
X140881009Y-64298801D01*
X140926760Y-64328994D01*
X140999852Y-64361750D01*
X141007891Y-64364955D01*
X141105849Y-64403746D01*
X141094603Y-64503139D01*
X141083358Y-64602533D01*
X141189333Y-64602533D01*
X141189333Y-66786933D01*
X141053866Y-66786933D01*
X141053866Y-64721066D01*
X139817733Y-64721066D01*
X139817733Y-64602533D01*
X139953200Y-64602533D01*
X140128926Y-64602533D01*
X140212479Y-64601504D01*
X140268562Y-64597831D01*
X140303527Y-64590636D01*
X140323726Y-64579038D01*
X140327457Y-64575056D01*
X140342036Y-64539855D01*
X140352052Y-64481387D01*
X140357001Y-64410007D01*
X140356383Y-64336072D01*
X140349697Y-64269936D01*
X140343592Y-64241838D01*
X140299032Y-64140797D01*
X140227946Y-64048440D01*
X140137641Y-63971966D01*
X140035427Y-63918577D01*
X140005426Y-63908675D01*
X139953200Y-63893697D01*
X139953200Y-64602533D01*
X139817733Y-64602533D01*
X139817733Y-62960000D01*
X139718842Y-62960000D01*
X139555544Y-62975817D01*
X139391221Y-63021109D01*
X139233606Y-63092635D01*
X139090428Y-63187155D01*
X139011893Y-63256285D01*
X138941041Y-63332577D01*
X138883592Y-63410439D01*
X138837861Y-63494854D01*
X138802161Y-63590805D01*
X138774806Y-63703274D01*
X138754109Y-63837244D01*
X138738385Y-63997698D01*
X138732318Y-64082372D01*
X138721845Y-64222920D01*
X138709628Y-64337531D01*
X138693822Y-64434137D01*
X138672583Y-64520666D01*
X138644067Y-64605049D01*
X138606430Y-64695217D01*
X138573030Y-64767370D01*
X138537736Y-64843759D01*
X138508591Y-64910909D01*
X138488428Y-64961999D01*
X138480076Y-64990207D01*
X138479999Y-64991524D01*
X138496330Y-65029789D01*
X138544913Y-65075658D01*
X138625134Y-65128566D01*
X138635183Y-65134401D01*
X138692287Y-65172138D01*
X138732477Y-65213616D01*
X138760290Y-65266851D01*
X138780264Y-65339863D01*
X138792948Y-65413215D01*
X138811782Y-65524929D01*
X138831725Y-65610128D01*
X138855374Y-65676130D01*
X138885327Y-65730253D01*
X138922261Y-65777647D01*
X139005737Y-65849096D01*
X139118973Y-65907347D01*
X139262406Y-65952547D01*
X139436476Y-65984841D01*
X139593366Y-66001133D01*
X139750000Y-66012859D01*
X139750000Y-66786933D01*
X139615264Y-66786933D01*
X139610665Y-66461565D01*
X139606066Y-66136198D01*
X139453666Y-66117256D01*
X139290928Y-66092582D01*
X139156490Y-66061678D01*
X139045055Y-66022612D01*
X138951331Y-65973448D01*
X138870022Y-65912253D01*
X138854868Y-65898478D01*
X138784000Y-65818224D01*
X138732414Y-65725265D01*
X138696532Y-65612040D01*
X138681054Y-65531244D01*
X138666039Y-65438004D01*
X138652864Y-65371474D01*
X138638081Y-65324912D01*
X138618240Y-65291577D01*
X138589891Y-65264728D01*
X138549587Y-65237623D01*
X138522270Y-65220891D01*
X138454346Y-65175245D01*
X138409386Y-65132909D01*
X138378593Y-65085436D01*
X138376222Y-65080635D01*
X138358000Y-65035941D01*
X138350390Y-64993103D01*
X138354638Y-64945748D01*
X138371988Y-64887502D01*
X138403685Y-64811992D01*
X138446146Y-64722703D01*
X138492118Y-64625476D01*
X138526704Y-64542233D01*
X138552002Y-64464390D01*
X138570111Y-64383362D01*
X138583128Y-64290564D01*
X138593153Y-64177413D01*
X138598367Y-64099959D01*
X138613477Y-63908025D01*
X138633773Y-63745190D01*
X138660909Y-63606873D01*
X138696540Y-63488490D01*
X138742319Y-63385460D01*
X138799901Y-63293201D01*
X138870941Y-63207129D01*
X138948291Y-63130672D01*
X139057467Y-63045529D01*
X139187756Y-62967632D01*
X139326404Y-62903863D01*
X139436733Y-62867116D01*
X139495414Y-62855281D01*
X139576487Y-62844080D01*
X139668485Y-62834898D01*
X139745766Y-62829761D01*
X139953200Y-62819606D01*
X139953200Y-62982936D01*
D10*
G04 #@! TO.C,16 MHz*
X145340000Y-97275000D02*
X151740000Y-97275000D01*
X145340000Y-102325000D02*
X151740000Y-102325000D01*
X151740000Y-102325000D02*
G75*
G03*
X151740000Y-97275000I0J2525000D01*
G01*
X145340000Y-102325000D02*
G75*
G02*
X145340000Y-97275000I0J2525000D01*
G01*
G04 #@! TO.C,SW9*
X121875000Y-88895000D02*
X135845000Y-88895000D01*
X135845000Y-88895000D02*
X135845000Y-102865000D01*
X135845000Y-102865000D02*
X121875000Y-102865000D01*
X121875000Y-102865000D02*
X121875000Y-88895000D01*
G04 #@! TO.C,SW8*
X121875000Y-69795000D02*
X135845000Y-69795000D01*
X135845000Y-69795000D02*
X135845000Y-83765000D01*
X135845000Y-83765000D02*
X121875000Y-83765000D01*
X121875000Y-83765000D02*
X121875000Y-69795000D01*
G04 #@! TO.C,SW6*
X102775000Y-88795000D02*
X116745000Y-88795000D01*
X116745000Y-88795000D02*
X116745000Y-102765000D01*
X116745000Y-102765000D02*
X102775000Y-102765000D01*
X102775000Y-102765000D02*
X102775000Y-88795000D01*
G04 #@! TO.C,SW5*
X102775000Y-69795000D02*
X116745000Y-69795000D01*
X116745000Y-69795000D02*
X116745000Y-83765000D01*
X116745000Y-83765000D02*
X102775000Y-83765000D01*
X102775000Y-83765000D02*
X102775000Y-69795000D01*
G04 #@! TO.C,SW4*
X83715000Y-88815000D02*
X97685000Y-88815000D01*
X97685000Y-88815000D02*
X97685000Y-102785000D01*
X97685000Y-102785000D02*
X83715000Y-102785000D01*
X83715000Y-102785000D02*
X83715000Y-88815000D01*
G04 #@! TO.C,SW3*
X83775000Y-69795000D02*
X97745000Y-69795000D01*
X97745000Y-69795000D02*
X97745000Y-83765000D01*
X97745000Y-83765000D02*
X83775000Y-83765000D01*
X83775000Y-83765000D02*
X83775000Y-69795000D01*
D11*
G04 #@! TO.C,U1*
X147525000Y-93025000D02*
X147750000Y-93025000D01*
X147525000Y-85775000D02*
X147850000Y-85775000D01*
X154775000Y-85775000D02*
X154450000Y-85775000D01*
X154775000Y-93025000D02*
X154450000Y-93025000D01*
X147525000Y-93025000D02*
X147525000Y-92700000D01*
X154775000Y-93025000D02*
X154775000Y-92700000D01*
X154775000Y-85775000D02*
X154775000Y-86100000D01*
X147525000Y-85775000D02*
X147525000Y-86100000D01*
X147750000Y-93025000D02*
X147750000Y-94450000D01*
D10*
G04 #@! TO.C,SW7*
X128900000Y-77200000D02*
X128900000Y-76200000D01*
X128400000Y-76700000D02*
X129400000Y-76700000D01*
X132400000Y-70600000D02*
X134800000Y-70600000D01*
X127600000Y-70600000D02*
X130200000Y-70600000D01*
X123000000Y-70600000D02*
X125400000Y-70600000D01*
X124800000Y-83900000D02*
X125100000Y-84200000D01*
X124800000Y-84500000D02*
X124800000Y-83900000D01*
X125100000Y-84200000D02*
X124800000Y-84500000D01*
X123000000Y-82800000D02*
X134800000Y-82800000D01*
X123000000Y-78700000D02*
X123000000Y-82800000D01*
X134800000Y-78700000D02*
X134800000Y-82800000D01*
X134800000Y-70600000D02*
X134800000Y-74700000D01*
X123000000Y-74700000D02*
X123000000Y-70600000D01*
X131900000Y-76700000D02*
G75*
G03*
X131900000Y-76700000I-3000000J0D01*
G01*
G04 #@! TO.C,SW2*
X90800000Y-77200000D02*
X90800000Y-76200000D01*
X90300000Y-76700000D02*
X91300000Y-76700000D01*
X94300000Y-70600000D02*
X96700000Y-70600000D01*
X89500000Y-70600000D02*
X92100000Y-70600000D01*
X84900000Y-70600000D02*
X87300000Y-70600000D01*
X86700000Y-83900000D02*
X87000000Y-84200000D01*
X86700000Y-84500000D02*
X86700000Y-83900000D01*
X87000000Y-84200000D02*
X86700000Y-84500000D01*
X84900000Y-82800000D02*
X96700000Y-82800000D01*
X84900000Y-78700000D02*
X84900000Y-82800000D01*
X96700000Y-78700000D02*
X96700000Y-82800000D01*
X96700000Y-70600000D02*
X96700000Y-74700000D01*
X84900000Y-74700000D02*
X84900000Y-70600000D01*
X93800000Y-76700000D02*
G75*
G03*
X93800000Y-76700000I-3000000J0D01*
G01*
G04 #@! TO.C,RESET*
X155760000Y-76380000D02*
X157840000Y-76380000D01*
X159520000Y-80550000D02*
X159030000Y-81040000D01*
X155760000Y-81820000D02*
X157840000Y-81820000D01*
X159520000Y-77650000D02*
X159030000Y-77160000D01*
X159520000Y-77650000D02*
X159520000Y-80550000D01*
X154080000Y-77650000D02*
X154570000Y-77160000D01*
X154080000Y-77650000D02*
X154080000Y-80550000D01*
X154080000Y-80550000D02*
X154570000Y-81040000D01*
G04 #@! TO.C,10k*
X159535000Y-87772936D02*
X159535000Y-88227064D01*
X158065000Y-87772936D02*
X158065000Y-88227064D01*
G04 #@! TO.C,5.1k*
X142927064Y-73635000D02*
X142472936Y-73635000D01*
X142927064Y-72165000D02*
X142472936Y-72165000D01*
X157572936Y-72165000D02*
X158027064Y-72165000D01*
X157572936Y-73635000D02*
X158027064Y-73635000D01*
G04 #@! TO.C,10k*
X150565000Y-80427064D02*
X150565000Y-79972936D01*
X152035000Y-80427064D02*
X152035000Y-79972936D01*
G04 #@! TO.C,22R*
X139865000Y-80427064D02*
X139865000Y-79972936D01*
X141335000Y-80427064D02*
X141335000Y-79972936D01*
X143365000Y-80427064D02*
X143365000Y-79972936D01*
X144835000Y-80427064D02*
X144835000Y-79972936D01*
G04 #@! TO.C,D7*
X118300000Y-97550000D02*
X120300000Y-97550000D01*
X120300000Y-97550000D02*
X120300000Y-93650000D01*
X118300000Y-97550000D02*
X118300000Y-93650000D01*
G04 #@! TO.C,D6*
X118400000Y-78950000D02*
X120400000Y-78950000D01*
X120400000Y-78950000D02*
X120400000Y-75050000D01*
X118400000Y-78950000D02*
X118400000Y-75050000D01*
G04 #@! TO.C,D5*
X99200000Y-97550000D02*
X101200000Y-97550000D01*
X101200000Y-97550000D02*
X101200000Y-93650000D01*
X99200000Y-97550000D02*
X99200000Y-93650000D01*
G04 #@! TO.C,D4*
X99300000Y-78950000D02*
X101300000Y-78950000D01*
X101300000Y-78950000D02*
X101300000Y-75050000D01*
X99300000Y-78950000D02*
X99300000Y-75050000D01*
G04 #@! TO.C,D3*
X80200000Y-97550000D02*
X82200000Y-97550000D01*
X82200000Y-97550000D02*
X82200000Y-93650000D01*
X80200000Y-97550000D02*
X80200000Y-93650000D01*
G04 #@! TO.C,D2*
X80200000Y-78950000D02*
X82200000Y-78950000D01*
X82200000Y-78950000D02*
X82200000Y-75050000D01*
X80200000Y-78950000D02*
X80200000Y-75050000D01*
G04 #@! TO.C,1uf*
X147065000Y-80461252D02*
X147065000Y-79938748D01*
X148535000Y-80461252D02*
X148535000Y-79938748D01*
G04 #@! TO.C,22pf*
X151738748Y-104165000D02*
X152261252Y-104165000D01*
X151738748Y-105635000D02*
X152261252Y-105635000D01*
X145323752Y-105635000D02*
X144801248Y-105635000D01*
X145323752Y-104165000D02*
X144801248Y-104165000D01*
G04 #@! TO.C,10uf*
X141061252Y-91135000D02*
X140538748Y-91135000D01*
X141061252Y-89665000D02*
X140538748Y-89665000D01*
G04 #@! TO.C,0.1uf*
X159735000Y-95738748D02*
X159735000Y-96261252D01*
X158265000Y-95738748D02*
X158265000Y-96261252D01*
X141061252Y-94335000D02*
X140538748Y-94335000D01*
X141061252Y-92865000D02*
X140538748Y-92865000D01*
G04 #@! TO.C,16 MHz*
D15*
X138342857Y-100361904D02*
X137885714Y-100361904D01*
X138114285Y-100361904D02*
X138114285Y-99561904D01*
X138038095Y-99676190D01*
X137961904Y-99752380D01*
X137885714Y-99790476D01*
X139028571Y-99561904D02*
X138876190Y-99561904D01*
X138800000Y-99600000D01*
X138761904Y-99638095D01*
X138685714Y-99752380D01*
X138647619Y-99904761D01*
X138647619Y-100209523D01*
X138685714Y-100285714D01*
X138723809Y-100323809D01*
X138800000Y-100361904D01*
X138952380Y-100361904D01*
X139028571Y-100323809D01*
X139066666Y-100285714D01*
X139104761Y-100209523D01*
X139104761Y-100019047D01*
X139066666Y-99942857D01*
X139028571Y-99904761D01*
X138952380Y-99866666D01*
X138800000Y-99866666D01*
X138723809Y-99904761D01*
X138685714Y-99942857D01*
X138647619Y-100019047D01*
X140057142Y-100361904D02*
X140057142Y-99561904D01*
X140323809Y-100133333D01*
X140590476Y-99561904D01*
X140590476Y-100361904D01*
X140971428Y-100361904D02*
X140971428Y-99561904D01*
X140971428Y-99942857D02*
X141428571Y-99942857D01*
X141428571Y-100361904D02*
X141428571Y-99561904D01*
X141733333Y-99828571D02*
X142152380Y-99828571D01*
X141733333Y-100361904D01*
X142152380Y-100361904D01*
G04 #@! TO.C,U1*
X144661904Y-90009523D02*
X145309523Y-90009523D01*
X145385714Y-89971428D01*
X145423809Y-89933333D01*
X145461904Y-89857142D01*
X145461904Y-89704761D01*
X145423809Y-89628571D01*
X145385714Y-89590476D01*
X145309523Y-89552380D01*
X144661904Y-89552380D01*
X145461904Y-88752380D02*
X145461904Y-89209523D01*
X145461904Y-88980952D02*
X144661904Y-88980952D01*
X144776190Y-89057142D01*
X144852380Y-89133333D01*
X144890476Y-89209523D01*
G04 #@! TO.C,SW7*
X122023809Y-82466666D02*
X122061904Y-82352380D01*
X122061904Y-82161904D01*
X122023809Y-82085714D01*
X121985714Y-82047619D01*
X121909523Y-82009523D01*
X121833333Y-82009523D01*
X121757142Y-82047619D01*
X121719047Y-82085714D01*
X121680952Y-82161904D01*
X121642857Y-82314285D01*
X121604761Y-82390476D01*
X121566666Y-82428571D01*
X121490476Y-82466666D01*
X121414285Y-82466666D01*
X121338095Y-82428571D01*
X121300000Y-82390476D01*
X121261904Y-82314285D01*
X121261904Y-82123809D01*
X121300000Y-82009523D01*
X121261904Y-81742857D02*
X122061904Y-81552380D01*
X121490476Y-81400000D01*
X122061904Y-81247619D01*
X121261904Y-81057142D01*
X121261904Y-80828571D02*
X121261904Y-80295238D01*
X122061904Y-80638095D01*
G04 #@! TO.C,SW2*
X83923809Y-82466666D02*
X83961904Y-82352380D01*
X83961904Y-82161904D01*
X83923809Y-82085714D01*
X83885714Y-82047619D01*
X83809523Y-82009523D01*
X83733333Y-82009523D01*
X83657142Y-82047619D01*
X83619047Y-82085714D01*
X83580952Y-82161904D01*
X83542857Y-82314285D01*
X83504761Y-82390476D01*
X83466666Y-82428571D01*
X83390476Y-82466666D01*
X83314285Y-82466666D01*
X83238095Y-82428571D01*
X83200000Y-82390476D01*
X83161904Y-82314285D01*
X83161904Y-82123809D01*
X83200000Y-82009523D01*
X83161904Y-81742857D02*
X83961904Y-81552380D01*
X83390476Y-81400000D01*
X83961904Y-81247619D01*
X83161904Y-81057142D01*
X83238095Y-80790476D02*
X83200000Y-80752380D01*
X83161904Y-80676190D01*
X83161904Y-80485714D01*
X83200000Y-80409523D01*
X83238095Y-80371428D01*
X83314285Y-80333333D01*
X83390476Y-80333333D01*
X83504761Y-80371428D01*
X83961904Y-80828571D01*
X83961904Y-80333333D01*
G04 #@! TO.C,RESET*
X157338095Y-84661904D02*
X157071428Y-84280952D01*
X156880952Y-84661904D02*
X156880952Y-83861904D01*
X157185714Y-83861904D01*
X157261904Y-83900000D01*
X157300000Y-83938095D01*
X157338095Y-84014285D01*
X157338095Y-84128571D01*
X157300000Y-84204761D01*
X157261904Y-84242857D01*
X157185714Y-84280952D01*
X156880952Y-84280952D01*
X157680952Y-84242857D02*
X157947619Y-84242857D01*
X158061904Y-84661904D02*
X157680952Y-84661904D01*
X157680952Y-83861904D01*
X158061904Y-83861904D01*
X158366666Y-84623809D02*
X158480952Y-84661904D01*
X158671428Y-84661904D01*
X158747619Y-84623809D01*
X158785714Y-84585714D01*
X158823809Y-84509523D01*
X158823809Y-84433333D01*
X158785714Y-84357142D01*
X158747619Y-84319047D01*
X158671428Y-84280952D01*
X158519047Y-84242857D01*
X158442857Y-84204761D01*
X158404761Y-84166666D01*
X158366666Y-84090476D01*
X158366666Y-84014285D01*
X158404761Y-83938095D01*
X158442857Y-83900000D01*
X158519047Y-83861904D01*
X158709523Y-83861904D01*
X158823809Y-83900000D01*
X159166666Y-84242857D02*
X159433333Y-84242857D01*
X159547619Y-84661904D02*
X159166666Y-84661904D01*
X159166666Y-83861904D01*
X159547619Y-83861904D01*
X159776190Y-83861904D02*
X160233333Y-83861904D01*
X160004761Y-84661904D02*
X160004761Y-83861904D01*
G04 #@! TO.C,10k*
X159923809Y-90961904D02*
X159466666Y-90961904D01*
X159695238Y-90961904D02*
X159695238Y-90161904D01*
X159619047Y-90276190D01*
X159542857Y-90352380D01*
X159466666Y-90390476D01*
X160419047Y-90161904D02*
X160495238Y-90161904D01*
X160571428Y-90200000D01*
X160609523Y-90238095D01*
X160647619Y-90314285D01*
X160685714Y-90466666D01*
X160685714Y-90657142D01*
X160647619Y-90809523D01*
X160609523Y-90885714D01*
X160571428Y-90923809D01*
X160495238Y-90961904D01*
X160419047Y-90961904D01*
X160342857Y-90923809D01*
X160304761Y-90885714D01*
X160266666Y-90809523D01*
X160228571Y-90657142D01*
X160228571Y-90466666D01*
X160266666Y-90314285D01*
X160304761Y-90238095D01*
X160342857Y-90200000D01*
X160419047Y-90161904D01*
X161028571Y-90961904D02*
X161028571Y-90161904D01*
X161104761Y-90657142D02*
X161333333Y-90961904D01*
X161333333Y-90428571D02*
X161028571Y-90733333D01*
G04 #@! TO.C,5.1k*
X141995238Y-74111904D02*
X141614285Y-74111904D01*
X141576190Y-74492857D01*
X141614285Y-74454761D01*
X141690476Y-74416666D01*
X141880952Y-74416666D01*
X141957142Y-74454761D01*
X141995238Y-74492857D01*
X142033333Y-74569047D01*
X142033333Y-74759523D01*
X141995238Y-74835714D01*
X141957142Y-74873809D01*
X141880952Y-74911904D01*
X141690476Y-74911904D01*
X141614285Y-74873809D01*
X141576190Y-74835714D01*
X142376190Y-74835714D02*
X142414285Y-74873809D01*
X142376190Y-74911904D01*
X142338095Y-74873809D01*
X142376190Y-74835714D01*
X142376190Y-74911904D01*
X143176190Y-74911904D02*
X142719047Y-74911904D01*
X142947619Y-74911904D02*
X142947619Y-74111904D01*
X142871428Y-74226190D01*
X142795238Y-74302380D01*
X142719047Y-74340476D01*
X143519047Y-74911904D02*
X143519047Y-74111904D01*
X143595238Y-74607142D02*
X143823809Y-74911904D01*
X143823809Y-74378571D02*
X143519047Y-74683333D01*
X157095238Y-70811904D02*
X156714285Y-70811904D01*
X156676190Y-71192857D01*
X156714285Y-71154761D01*
X156790476Y-71116666D01*
X156980952Y-71116666D01*
X157057142Y-71154761D01*
X157095238Y-71192857D01*
X157133333Y-71269047D01*
X157133333Y-71459523D01*
X157095238Y-71535714D01*
X157057142Y-71573809D01*
X156980952Y-71611904D01*
X156790476Y-71611904D01*
X156714285Y-71573809D01*
X156676190Y-71535714D01*
X157476190Y-71535714D02*
X157514285Y-71573809D01*
X157476190Y-71611904D01*
X157438095Y-71573809D01*
X157476190Y-71535714D01*
X157476190Y-71611904D01*
X158276190Y-71611904D02*
X157819047Y-71611904D01*
X158047619Y-71611904D02*
X158047619Y-70811904D01*
X157971428Y-70926190D01*
X157895238Y-71002380D01*
X157819047Y-71040476D01*
X158619047Y-71611904D02*
X158619047Y-70811904D01*
X158695238Y-71307142D02*
X158923809Y-71611904D01*
X158923809Y-71078571D02*
X158619047Y-71383333D01*
G04 #@! TO.C,10k*
X150823809Y-78161904D02*
X150366666Y-78161904D01*
X150595238Y-78161904D02*
X150595238Y-77361904D01*
X150519047Y-77476190D01*
X150442857Y-77552380D01*
X150366666Y-77590476D01*
X151319047Y-77361904D02*
X151395238Y-77361904D01*
X151471428Y-77400000D01*
X151509523Y-77438095D01*
X151547619Y-77514285D01*
X151585714Y-77666666D01*
X151585714Y-77857142D01*
X151547619Y-78009523D01*
X151509523Y-78085714D01*
X151471428Y-78123809D01*
X151395238Y-78161904D01*
X151319047Y-78161904D01*
X151242857Y-78123809D01*
X151204761Y-78085714D01*
X151166666Y-78009523D01*
X151128571Y-77857142D01*
X151128571Y-77666666D01*
X151166666Y-77514285D01*
X151204761Y-77438095D01*
X151242857Y-77400000D01*
X151319047Y-77361904D01*
X151928571Y-78161904D02*
X151928571Y-77361904D01*
X152004761Y-77857142D02*
X152233333Y-78161904D01*
X152233333Y-77628571D02*
X151928571Y-77933333D01*
G04 #@! TO.C,22R*
X139390476Y-77338095D02*
X139428571Y-77300000D01*
X139504761Y-77261904D01*
X139695238Y-77261904D01*
X139771428Y-77300000D01*
X139809523Y-77338095D01*
X139847619Y-77414285D01*
X139847619Y-77490476D01*
X139809523Y-77604761D01*
X139352380Y-78061904D01*
X139847619Y-78061904D01*
X140152380Y-77338095D02*
X140190476Y-77300000D01*
X140266666Y-77261904D01*
X140457142Y-77261904D01*
X140533333Y-77300000D01*
X140571428Y-77338095D01*
X140609523Y-77414285D01*
X140609523Y-77490476D01*
X140571428Y-77604761D01*
X140114285Y-78061904D01*
X140609523Y-78061904D01*
X141409523Y-78061904D02*
X141142857Y-77680952D01*
X140952380Y-78061904D02*
X140952380Y-77261904D01*
X141257142Y-77261904D01*
X141333333Y-77300000D01*
X141371428Y-77338095D01*
X141409523Y-77414285D01*
X141409523Y-77528571D01*
X141371428Y-77604761D01*
X141333333Y-77642857D01*
X141257142Y-77680952D01*
X140952380Y-77680952D01*
X143290476Y-77338095D02*
X143328571Y-77300000D01*
X143404761Y-77261904D01*
X143595238Y-77261904D01*
X143671428Y-77300000D01*
X143709523Y-77338095D01*
X143747619Y-77414285D01*
X143747619Y-77490476D01*
X143709523Y-77604761D01*
X143252380Y-78061904D01*
X143747619Y-78061904D01*
X144052380Y-77338095D02*
X144090476Y-77300000D01*
X144166666Y-77261904D01*
X144357142Y-77261904D01*
X144433333Y-77300000D01*
X144471428Y-77338095D01*
X144509523Y-77414285D01*
X144509523Y-77490476D01*
X144471428Y-77604761D01*
X144014285Y-78061904D01*
X144509523Y-78061904D01*
X145309523Y-78061904D02*
X145042857Y-77680952D01*
X144852380Y-78061904D02*
X144852380Y-77261904D01*
X145157142Y-77261904D01*
X145233333Y-77300000D01*
X145271428Y-77338095D01*
X145309523Y-77414285D01*
X145309523Y-77528571D01*
X145271428Y-77604761D01*
X145233333Y-77642857D01*
X145157142Y-77680952D01*
X144852380Y-77680952D01*
G04 #@! TO.C,D7*
X117661904Y-95890476D02*
X116861904Y-95890476D01*
X116861904Y-95700000D01*
X116900000Y-95585714D01*
X116976190Y-95509523D01*
X117052380Y-95471428D01*
X117204761Y-95433333D01*
X117319047Y-95433333D01*
X117471428Y-95471428D01*
X117547619Y-95509523D01*
X117623809Y-95585714D01*
X117661904Y-95700000D01*
X117661904Y-95890476D01*
X116861904Y-95166666D02*
X116861904Y-94633333D01*
X117661904Y-94976190D01*
G04 #@! TO.C,D6*
X117761904Y-77290476D02*
X116961904Y-77290476D01*
X116961904Y-77100000D01*
X117000000Y-76985714D01*
X117076190Y-76909523D01*
X117152380Y-76871428D01*
X117304761Y-76833333D01*
X117419047Y-76833333D01*
X117571428Y-76871428D01*
X117647619Y-76909523D01*
X117723809Y-76985714D01*
X117761904Y-77100000D01*
X117761904Y-77290476D01*
X116961904Y-76147619D02*
X116961904Y-76300000D01*
X117000000Y-76376190D01*
X117038095Y-76414285D01*
X117152380Y-76490476D01*
X117304761Y-76528571D01*
X117609523Y-76528571D01*
X117685714Y-76490476D01*
X117723809Y-76452380D01*
X117761904Y-76376190D01*
X117761904Y-76223809D01*
X117723809Y-76147619D01*
X117685714Y-76109523D01*
X117609523Y-76071428D01*
X117419047Y-76071428D01*
X117342857Y-76109523D01*
X117304761Y-76147619D01*
X117266666Y-76223809D01*
X117266666Y-76376190D01*
X117304761Y-76452380D01*
X117342857Y-76490476D01*
X117419047Y-76528571D01*
G04 #@! TO.C,D5*
X98561904Y-95890476D02*
X97761904Y-95890476D01*
X97761904Y-95700000D01*
X97800000Y-95585714D01*
X97876190Y-95509523D01*
X97952380Y-95471428D01*
X98104761Y-95433333D01*
X98219047Y-95433333D01*
X98371428Y-95471428D01*
X98447619Y-95509523D01*
X98523809Y-95585714D01*
X98561904Y-95700000D01*
X98561904Y-95890476D01*
X97761904Y-94709523D02*
X97761904Y-95090476D01*
X98142857Y-95128571D01*
X98104761Y-95090476D01*
X98066666Y-95014285D01*
X98066666Y-94823809D01*
X98104761Y-94747619D01*
X98142857Y-94709523D01*
X98219047Y-94671428D01*
X98409523Y-94671428D01*
X98485714Y-94709523D01*
X98523809Y-94747619D01*
X98561904Y-94823809D01*
X98561904Y-95014285D01*
X98523809Y-95090476D01*
X98485714Y-95128571D01*
G04 #@! TO.C,D4*
X98661904Y-77290476D02*
X97861904Y-77290476D01*
X97861904Y-77100000D01*
X97900000Y-76985714D01*
X97976190Y-76909523D01*
X98052380Y-76871428D01*
X98204761Y-76833333D01*
X98319047Y-76833333D01*
X98471428Y-76871428D01*
X98547619Y-76909523D01*
X98623809Y-76985714D01*
X98661904Y-77100000D01*
X98661904Y-77290476D01*
X98128571Y-76147619D02*
X98661904Y-76147619D01*
X97823809Y-76338095D02*
X98395238Y-76528571D01*
X98395238Y-76033333D01*
G04 #@! TO.C,D3*
X79561904Y-95890476D02*
X78761904Y-95890476D01*
X78761904Y-95700000D01*
X78800000Y-95585714D01*
X78876190Y-95509523D01*
X78952380Y-95471428D01*
X79104761Y-95433333D01*
X79219047Y-95433333D01*
X79371428Y-95471428D01*
X79447619Y-95509523D01*
X79523809Y-95585714D01*
X79561904Y-95700000D01*
X79561904Y-95890476D01*
X78761904Y-95166666D02*
X78761904Y-94671428D01*
X79066666Y-94938095D01*
X79066666Y-94823809D01*
X79104761Y-94747619D01*
X79142857Y-94709523D01*
X79219047Y-94671428D01*
X79409523Y-94671428D01*
X79485714Y-94709523D01*
X79523809Y-94747619D01*
X79561904Y-94823809D01*
X79561904Y-95052380D01*
X79523809Y-95128571D01*
X79485714Y-95166666D01*
G04 #@! TO.C,D2*
X79561904Y-77290476D02*
X78761904Y-77290476D01*
X78761904Y-77100000D01*
X78800000Y-76985714D01*
X78876190Y-76909523D01*
X78952380Y-76871428D01*
X79104761Y-76833333D01*
X79219047Y-76833333D01*
X79371428Y-76871428D01*
X79447619Y-76909523D01*
X79523809Y-76985714D01*
X79561904Y-77100000D01*
X79561904Y-77290476D01*
X78838095Y-76528571D02*
X78800000Y-76490476D01*
X78761904Y-76414285D01*
X78761904Y-76223809D01*
X78800000Y-76147619D01*
X78838095Y-76109523D01*
X78914285Y-76071428D01*
X78990476Y-76071428D01*
X79104761Y-76109523D01*
X79561904Y-76566666D01*
X79561904Y-76071428D01*
G04 #@! TO.C,1uf*
X147338095Y-78061904D02*
X146880952Y-78061904D01*
X147109523Y-78061904D02*
X147109523Y-77261904D01*
X147033333Y-77376190D01*
X146957142Y-77452380D01*
X146880952Y-77490476D01*
X148023809Y-77528571D02*
X148023809Y-78061904D01*
X147680952Y-77528571D02*
X147680952Y-77947619D01*
X147719047Y-78023809D01*
X147795238Y-78061904D01*
X147909523Y-78061904D01*
X147985714Y-78023809D01*
X148023809Y-77985714D01*
X148290476Y-77528571D02*
X148595238Y-77528571D01*
X148404761Y-78061904D02*
X148404761Y-77376190D01*
X148442857Y-77300000D01*
X148519047Y-77261904D01*
X148595238Y-77261904D01*
G04 #@! TO.C,22pf*
X154400000Y-104638095D02*
X154438095Y-104600000D01*
X154514285Y-104561904D01*
X154704761Y-104561904D01*
X154780952Y-104600000D01*
X154819047Y-104638095D01*
X154857142Y-104714285D01*
X154857142Y-104790476D01*
X154819047Y-104904761D01*
X154361904Y-105361904D01*
X154857142Y-105361904D01*
X155161904Y-104638095D02*
X155200000Y-104600000D01*
X155276190Y-104561904D01*
X155466666Y-104561904D01*
X155542857Y-104600000D01*
X155580952Y-104638095D01*
X155619047Y-104714285D01*
X155619047Y-104790476D01*
X155580952Y-104904761D01*
X155123809Y-105361904D01*
X155619047Y-105361904D01*
X155961904Y-104828571D02*
X155961904Y-105628571D01*
X155961904Y-104866666D02*
X156038095Y-104828571D01*
X156190476Y-104828571D01*
X156266666Y-104866666D01*
X156304761Y-104904761D01*
X156342857Y-104980952D01*
X156342857Y-105209523D01*
X156304761Y-105285714D01*
X156266666Y-105323809D01*
X156190476Y-105361904D01*
X156038095Y-105361904D01*
X155961904Y-105323809D01*
X156571428Y-104828571D02*
X156876190Y-104828571D01*
X156685714Y-105361904D02*
X156685714Y-104676190D01*
X156723809Y-104600000D01*
X156800000Y-104561904D01*
X156876190Y-104561904D01*
X140200000Y-104638095D02*
X140238095Y-104600000D01*
X140314285Y-104561904D01*
X140504761Y-104561904D01*
X140580952Y-104600000D01*
X140619047Y-104638095D01*
X140657142Y-104714285D01*
X140657142Y-104790476D01*
X140619047Y-104904761D01*
X140161904Y-105361904D01*
X140657142Y-105361904D01*
X140961904Y-104638095D02*
X141000000Y-104600000D01*
X141076190Y-104561904D01*
X141266666Y-104561904D01*
X141342857Y-104600000D01*
X141380952Y-104638095D01*
X141419047Y-104714285D01*
X141419047Y-104790476D01*
X141380952Y-104904761D01*
X140923809Y-105361904D01*
X141419047Y-105361904D01*
X141761904Y-104828571D02*
X141761904Y-105628571D01*
X141761904Y-104866666D02*
X141838095Y-104828571D01*
X141990476Y-104828571D01*
X142066666Y-104866666D01*
X142104761Y-104904761D01*
X142142857Y-104980952D01*
X142142857Y-105209523D01*
X142104761Y-105285714D01*
X142066666Y-105323809D01*
X141990476Y-105361904D01*
X141838095Y-105361904D01*
X141761904Y-105323809D01*
X142371428Y-104828571D02*
X142676190Y-104828571D01*
X142485714Y-105361904D02*
X142485714Y-104676190D01*
X142523809Y-104600000D01*
X142600000Y-104561904D01*
X142676190Y-104561904D01*
G04 #@! TO.C,10uf*
X139957142Y-89161904D02*
X139500000Y-89161904D01*
X139728571Y-89161904D02*
X139728571Y-88361904D01*
X139652380Y-88476190D01*
X139576190Y-88552380D01*
X139500000Y-88590476D01*
X140452380Y-88361904D02*
X140528571Y-88361904D01*
X140604761Y-88400000D01*
X140642857Y-88438095D01*
X140680952Y-88514285D01*
X140719047Y-88666666D01*
X140719047Y-88857142D01*
X140680952Y-89009523D01*
X140642857Y-89085714D01*
X140604761Y-89123809D01*
X140528571Y-89161904D01*
X140452380Y-89161904D01*
X140376190Y-89123809D01*
X140338095Y-89085714D01*
X140300000Y-89009523D01*
X140261904Y-88857142D01*
X140261904Y-88666666D01*
X140300000Y-88514285D01*
X140338095Y-88438095D01*
X140376190Y-88400000D01*
X140452380Y-88361904D01*
X141404761Y-88628571D02*
X141404761Y-89161904D01*
X141061904Y-88628571D02*
X141061904Y-89047619D01*
X141100000Y-89123809D01*
X141176190Y-89161904D01*
X141290476Y-89161904D01*
X141366666Y-89123809D01*
X141404761Y-89085714D01*
X141671428Y-88628571D02*
X141976190Y-88628571D01*
X141785714Y-89161904D02*
X141785714Y-88476190D01*
X141823809Y-88400000D01*
X141900000Y-88361904D01*
X141976190Y-88361904D01*
G04 #@! TO.C,0.1uf*
X160800000Y-96061904D02*
X160876190Y-96061904D01*
X160952380Y-96100000D01*
X160990476Y-96138095D01*
X161028571Y-96214285D01*
X161066666Y-96366666D01*
X161066666Y-96557142D01*
X161028571Y-96709523D01*
X160990476Y-96785714D01*
X160952380Y-96823809D01*
X160876190Y-96861904D01*
X160800000Y-96861904D01*
X160723809Y-96823809D01*
X160685714Y-96785714D01*
X160647619Y-96709523D01*
X160609523Y-96557142D01*
X160609523Y-96366666D01*
X160647619Y-96214285D01*
X160685714Y-96138095D01*
X160723809Y-96100000D01*
X160800000Y-96061904D01*
X161409523Y-96785714D02*
X161447619Y-96823809D01*
X161409523Y-96861904D01*
X161371428Y-96823809D01*
X161409523Y-96785714D01*
X161409523Y-96861904D01*
X162209523Y-96861904D02*
X161752380Y-96861904D01*
X161980952Y-96861904D02*
X161980952Y-96061904D01*
X161904761Y-96176190D01*
X161828571Y-96252380D01*
X161752380Y-96290476D01*
X162895238Y-96328571D02*
X162895238Y-96861904D01*
X162552380Y-96328571D02*
X162552380Y-96747619D01*
X162590476Y-96823809D01*
X162666666Y-96861904D01*
X162780952Y-96861904D01*
X162857142Y-96823809D01*
X162895238Y-96785714D01*
X163161904Y-96328571D02*
X163466666Y-96328571D01*
X163276190Y-96861904D02*
X163276190Y-96176190D01*
X163314285Y-96100000D01*
X163390476Y-96061904D01*
X163466666Y-96061904D01*
X139600000Y-94841904D02*
X139676190Y-94841904D01*
X139752380Y-94880000D01*
X139790476Y-94918095D01*
X139828571Y-94994285D01*
X139866666Y-95146666D01*
X139866666Y-95337142D01*
X139828571Y-95489523D01*
X139790476Y-95565714D01*
X139752380Y-95603809D01*
X139676190Y-95641904D01*
X139600000Y-95641904D01*
X139523809Y-95603809D01*
X139485714Y-95565714D01*
X139447619Y-95489523D01*
X139409523Y-95337142D01*
X139409523Y-95146666D01*
X139447619Y-94994285D01*
X139485714Y-94918095D01*
X139523809Y-94880000D01*
X139600000Y-94841904D01*
X140209523Y-95565714D02*
X140247619Y-95603809D01*
X140209523Y-95641904D01*
X140171428Y-95603809D01*
X140209523Y-95565714D01*
X140209523Y-95641904D01*
X141009523Y-95641904D02*
X140552380Y-95641904D01*
X140780952Y-95641904D02*
X140780952Y-94841904D01*
X140704761Y-94956190D01*
X140628571Y-95032380D01*
X140552380Y-95070476D01*
X141695238Y-95108571D02*
X141695238Y-95641904D01*
X141352380Y-95108571D02*
X141352380Y-95527619D01*
X141390476Y-95603809D01*
X141466666Y-95641904D01*
X141580952Y-95641904D01*
X141657142Y-95603809D01*
X141695238Y-95565714D01*
X141961904Y-95108571D02*
X142266666Y-95108571D01*
X142076190Y-95641904D02*
X142076190Y-94956190D01*
X142114285Y-94880000D01*
X142190476Y-94841904D01*
X142266666Y-94841904D01*
G04 #@! TD*
M02*
