M48
; DRILL file {KiCad (5.1.9)-1} date 03/12/21 14:24:08
; FORMAT={-:-/ absolute / inch / decimal}
; #@! TF.CreationDate,2021-03-12T14:24:08+01:00
; #@! TF.GenerationSoftware,Kicad,Pcbnew,(5.1.9)-1
; #@! TF.FileFunction,Plated,1,2,PTH
FMAT,2
INCH
T1C0.0157
T2C0.0256
T3C0.0315
T4C0.0394
T5C0.0591
T6C0.1260
%
G90
G05
T1
X3.2126Y-3.248
X4.3031Y-3.315
X4.3268Y-3.4764
X4.5906Y-3.2441
X4.6142Y-3.4764
X4.6969Y-3.311
X5.3189Y-3.5591
X5.4016Y-3.6535
X5.5079Y-2.8701
X5.7362Y-3.3425
X5.7835Y-3.2992
X5.8661Y-2.8346
X5.9035Y-3.2894
X5.9646Y-2.8346
X5.9665Y-3.2697
X6.0295Y-3.2382
X6.0394Y-2.9921
X6.1772Y-2.7874
X6.2047Y-3.6299
X6.248Y-3.5984
T3
X5.752Y-3.9291
X5.9441Y-3.9291
T4
X3.4764Y-2.7441
X3.4764Y-3.315
X3.5748Y-3.315
X3.6732Y-2.7441
X3.6732Y-3.315
X4.9764Y-2.7441
X4.9764Y-3.315
X5.0748Y-3.315
X5.1732Y-2.7441
X5.1732Y-3.315
T5
X3.4209Y-3.6717
X3.4232Y-2.9228
X3.6709Y-3.5717
X3.6732Y-2.8228
X4.1713Y-2.9228
X4.1713Y-3.6709
X4.4213Y-2.8228
X4.4213Y-3.5709
X4.9232Y-2.9228
X4.9232Y-3.6748
X5.1732Y-2.8228
X5.1732Y-3.5748
T6
X3.0512Y-2.6378
X3.0512Y-4.0157
X6.2598Y-2.6378
X6.2598Y-4.0157
T2
G00X5.7453Y-2.5315
M15
G01X5.7453Y-2.5079
M16
G05
G00X5.7453Y-2.7059
M15
G01X5.7453Y-2.6626
M16
G05
G00X6.0854Y-2.5315
M15
G01X6.0854Y-2.5079
M16
G05
G00X6.0854Y-2.7059
M15
G01X6.0854Y-2.6626
M16
G05
T5
G00X3.3543Y-3.0453
M15
G01X3.3543Y-2.9941
M16
G05
G00X3.7953Y-3.0453
M15
G01X3.7953Y-2.9941
M16
G05
G00X4.8543Y-3.0453
M15
G01X4.8543Y-2.9941
M16
G05
G00X5.2953Y-3.0453
M15
G01X5.2953Y-2.9941
M16
G05
T0
M30
