G04 #@! TF.GenerationSoftware,KiCad,Pcbnew,(5.1.9)-1*
G04 #@! TF.CreationDate,2021-03-12T14:24:20+01:00*
G04 #@! TF.ProjectId,case_keypad,63617365-5f6b-4657-9970-61642e6b6963,rev?*
G04 #@! TF.SameCoordinates,Original*
G04 #@! TF.FileFunction,Copper,L1,Top*
G04 #@! TF.FilePolarity,Positive*
%FSLAX46Y46*%
G04 Gerber Fmt 4.6, Leading zero omitted, Abs format (unit mm)*
G04 Created by KiCad (PCBNEW (5.1.9)-1) date 2021-03-12 14:24:20*
%MOMM*%
%LPD*%
G01*
G04 APERTURE LIST*
G04 #@! TA.AperFunction,ComponentPad*
%ADD10C,5.600000*%
G04 #@! TD*
G04 #@! TA.AperFunction,ComponentPad*
%ADD11O,1.050000X2.100000*%
G04 #@! TD*
G04 #@! TA.AperFunction,SMDPad,CuDef*
%ADD12R,0.600000X1.950000*%
G04 #@! TD*
G04 #@! TA.AperFunction,SMDPad,CuDef*
%ADD13R,0.300000X1.950000*%
G04 #@! TD*
G04 #@! TA.AperFunction,ComponentPad*
%ADD14C,1.500000*%
G04 #@! TD*
G04 #@! TA.AperFunction,ComponentPad*
%ADD15C,2.200000*%
G04 #@! TD*
G04 #@! TA.AperFunction,SMDPad,CuDef*
%ADD16R,1.600000X0.550000*%
G04 #@! TD*
G04 #@! TA.AperFunction,SMDPad,CuDef*
%ADD17R,0.550000X1.600000*%
G04 #@! TD*
G04 #@! TA.AperFunction,ComponentPad*
%ADD18R,2.000000X2.000000*%
G04 #@! TD*
G04 #@! TA.AperFunction,ComponentPad*
%ADD19C,2.000000*%
G04 #@! TD*
G04 #@! TA.AperFunction,ComponentPad*
%ADD20R,2.000000X3.200000*%
G04 #@! TD*
G04 #@! TA.AperFunction,SMDPad,CuDef*
%ADD21R,1.100000X1.800000*%
G04 #@! TD*
G04 #@! TA.AperFunction,SMDPad,CuDef*
%ADD22R,1.200000X0.900000*%
G04 #@! TD*
G04 #@! TA.AperFunction,ViaPad*
%ADD23C,0.800000*%
G04 #@! TD*
G04 #@! TA.AperFunction,Conductor*
%ADD24C,0.254000*%
G04 #@! TD*
G04 #@! TA.AperFunction,Conductor*
%ADD25C,0.304800*%
G04 #@! TD*
G04 #@! TA.AperFunction,Conductor*
%ADD26C,0.250000*%
G04 #@! TD*
G04 #@! TA.AperFunction,Conductor*
%ADD27C,0.100000*%
G04 #@! TD*
G04 APERTURE END LIST*
D10*
G04 #@! TO.P,REF\u002A\u002A,1*
G04 #@! TO.N,N/C*
X77500000Y-102000000D03*
G04 #@! TD*
G04 #@! TO.P,REF\u002A\u002A,1*
G04 #@! TO.N,N/C*
X77500000Y-67000000D03*
G04 #@! TD*
G04 #@! TO.P,REF\u002A\u002A,1*
G04 #@! TO.N,N/C*
X159000000Y-102000000D03*
G04 #@! TD*
G04 #@! TO.P,REF\u002A\u002A,1*
G04 #@! TO.N,N/C*
X159000000Y-67000000D03*
G04 #@! TD*
D11*
G04 #@! TO.P,J1,S4*
G04 #@! TO.N,GND*
X145930000Y-64000000D03*
G04 #@! TO.P,J1,S3*
X154570000Y-64000000D03*
G04 #@! TO.P,J1,S2*
X145930000Y-68180000D03*
G04 #@! TO.P,J1,S1*
X154570000Y-68180000D03*
D12*
G04 #@! TO.P,J1,B1A12*
X147000000Y-69350000D03*
G04 #@! TO.P,J1,B4A9*
G04 #@! TO.N,+5V*
X147800000Y-69350000D03*
D13*
G04 #@! TO.P,J1,B5*
G04 #@! TO.N,Net-(J1-PadB5)*
X148500000Y-69350000D03*
G04 #@! TO.P,J1,A8*
G04 #@! TO.N,Net-(J1-PadA8)*
X149000000Y-69350000D03*
G04 #@! TO.P,J1,B6*
G04 #@! TO.N,D+*
X149500000Y-69350000D03*
G04 #@! TO.P,J1,A7*
G04 #@! TO.N,D-*
X150000000Y-69350000D03*
G04 #@! TO.P,J1,B8*
G04 #@! TO.N,Net-(J1-PadB8)*
X152000000Y-69350000D03*
G04 #@! TO.P,J1,A5*
G04 #@! TO.N,Net-(J1-PadA5)*
X151500000Y-69350000D03*
G04 #@! TO.P,J1,B7*
G04 #@! TO.N,D-*
X151000000Y-69350000D03*
G04 #@! TO.P,J1,A6*
G04 #@! TO.N,D+*
X150500000Y-69350000D03*
D12*
G04 #@! TO.P,J1,A4B9*
G04 #@! TO.N,+5V*
X152700000Y-69350000D03*
G04 #@! TO.P,J1,A1B12*
G04 #@! TO.N,GND*
X153500000Y-69350000D03*
G04 #@! TD*
D14*
G04 #@! TO.P,16 MHz,2*
G04 #@! TO.N,Net-(C5-Pad1)*
X150980000Y-99800000D03*
G04 #@! TO.P,16 MHz,1*
G04 #@! TO.N,Net-(C4-Pad1)*
X146100000Y-99800000D03*
G04 #@! TD*
D15*
G04 #@! TO.P,SW9,2*
G04 #@! TO.N,Net-(D7-Pad2)*
X125050000Y-93340000D03*
G04 #@! TO.P,SW9,1*
G04 #@! TO.N,col2*
X131400000Y-90800000D03*
G04 #@! TD*
G04 #@! TO.P,SW8,2*
G04 #@! TO.N,Net-(D6-Pad2)*
X125050000Y-74240000D03*
G04 #@! TO.P,SW8,1*
G04 #@! TO.N,col2*
X131400000Y-71700000D03*
G04 #@! TD*
G04 #@! TO.P,SW6,2*
G04 #@! TO.N,Net-(D5-Pad2)*
X105950000Y-93240000D03*
G04 #@! TO.P,SW6,1*
G04 #@! TO.N,col1*
X112300000Y-90700000D03*
G04 #@! TD*
G04 #@! TO.P,SW5,2*
G04 #@! TO.N,Net-(D4-Pad2)*
X105950000Y-74240000D03*
G04 #@! TO.P,SW5,1*
G04 #@! TO.N,col1*
X112300000Y-71700000D03*
G04 #@! TD*
G04 #@! TO.P,SW4,2*
G04 #@! TO.N,Net-(D3-Pad2)*
X86890000Y-93260000D03*
G04 #@! TO.P,SW4,1*
G04 #@! TO.N,col0*
X93240000Y-90720000D03*
G04 #@! TD*
G04 #@! TO.P,SW3,2*
G04 #@! TO.N,Net-(D2-Pad2)*
X86950000Y-74240000D03*
G04 #@! TO.P,SW3,1*
G04 #@! TO.N,col0*
X93300000Y-71700000D03*
G04 #@! TD*
D16*
G04 #@! TO.P,U1,32*
G04 #@! TO.N,+5V*
X146900000Y-92200000D03*
G04 #@! TO.P,U1,31*
X146900000Y-91400000D03*
G04 #@! TO.P,U1,30*
G04 #@! TO.N,Net-(R2-Pad1)*
X146900000Y-90600000D03*
G04 #@! TO.P,U1,29*
G04 #@! TO.N,Net-(R1-Pad1)*
X146900000Y-89800000D03*
G04 #@! TO.P,U1,28*
G04 #@! TO.N,GND*
X146900000Y-89000000D03*
G04 #@! TO.P,U1,27*
G04 #@! TO.N,Net-(C6-Pad1)*
X146900000Y-88200000D03*
G04 #@! TO.P,U1,26*
G04 #@! TO.N,row1*
X146900000Y-87400000D03*
G04 #@! TO.P,U1,25*
G04 #@! TO.N,row0*
X146900000Y-86600000D03*
D17*
G04 #@! TO.P,U1,24*
G04 #@! TO.N,Net-(R4-Pad1)*
X148350000Y-85150000D03*
G04 #@! TO.P,U1,23*
G04 #@! TO.N,Net-(U1-Pad23)*
X149150000Y-85150000D03*
G04 #@! TO.P,U1,22*
G04 #@! TO.N,col0*
X149950000Y-85150000D03*
G04 #@! TO.P,U1,21*
G04 #@! TO.N,Net-(U1-Pad21)*
X150750000Y-85150000D03*
G04 #@! TO.P,U1,20*
G04 #@! TO.N,col1*
X151550000Y-85150000D03*
G04 #@! TO.P,U1,19*
G04 #@! TO.N,Net-(U1-Pad19)*
X152350000Y-85150000D03*
G04 #@! TO.P,U1,18*
G04 #@! TO.N,col2*
X153150000Y-85150000D03*
G04 #@! TO.P,U1,17*
G04 #@! TO.N,Net-(U1-Pad17)*
X153950000Y-85150000D03*
D16*
G04 #@! TO.P,U1,16*
G04 #@! TO.N,Net-(U1-Pad16)*
X155400000Y-86600000D03*
G04 #@! TO.P,U1,15*
G04 #@! TO.N,Net-(U1-Pad15)*
X155400000Y-87400000D03*
G04 #@! TO.P,U1,14*
G04 #@! TO.N,Net-(U1-Pad14)*
X155400000Y-88200000D03*
G04 #@! TO.P,U1,13*
G04 #@! TO.N,Net-(R7-Pad2)*
X155400000Y-89000000D03*
G04 #@! TO.P,U1,12*
G04 #@! TO.N,Net-(U1-Pad12)*
X155400000Y-89800000D03*
G04 #@! TO.P,U1,11*
G04 #@! TO.N,Net-(U1-Pad11)*
X155400000Y-90600000D03*
G04 #@! TO.P,U1,10*
G04 #@! TO.N,B1*
X155400000Y-91400000D03*
G04 #@! TO.P,U1,9*
G04 #@! TO.N,A1*
X155400000Y-92200000D03*
D17*
G04 #@! TO.P,U1,8*
G04 #@! TO.N,Net-(U1-Pad8)*
X153950000Y-93650000D03*
G04 #@! TO.P,U1,7*
G04 #@! TO.N,Net-(U1-Pad7)*
X153150000Y-93650000D03*
G04 #@! TO.P,U1,6*
G04 #@! TO.N,Net-(U1-Pad6)*
X152350000Y-93650000D03*
G04 #@! TO.P,U1,5*
G04 #@! TO.N,Net-(U1-Pad5)*
X151550000Y-93650000D03*
G04 #@! TO.P,U1,4*
G04 #@! TO.N,+5V*
X150750000Y-93650000D03*
G04 #@! TO.P,U1,3*
G04 #@! TO.N,GND*
X149950000Y-93650000D03*
G04 #@! TO.P,U1,2*
G04 #@! TO.N,Net-(C5-Pad1)*
X149150000Y-93650000D03*
G04 #@! TO.P,U1,1*
G04 #@! TO.N,Net-(C4-Pad1)*
X148350000Y-93650000D03*
G04 #@! TD*
D18*
G04 #@! TO.P,SW7,A*
G04 #@! TO.N,A1*
X126400000Y-84200000D03*
D19*
G04 #@! TO.P,SW7,C*
G04 #@! TO.N,GND*
X128900000Y-84200000D03*
G04 #@! TO.P,SW7,B*
G04 #@! TO.N,B1*
X131400000Y-84200000D03*
D20*
G04 #@! TO.P,SW7,MP*
G04 #@! TO.N,N/C*
X123300000Y-76700000D03*
X134500000Y-76700000D03*
D19*
G04 #@! TO.P,SW7,S2*
G04 #@! TO.N,Net-(D6-Pad2)*
X126400000Y-69700000D03*
G04 #@! TO.P,SW7,S1*
G04 #@! TO.N,col2*
X131400000Y-69700000D03*
G04 #@! TD*
D18*
G04 #@! TO.P,SW2,A*
G04 #@! TO.N,A1*
X88300000Y-84200000D03*
D19*
G04 #@! TO.P,SW2,C*
G04 #@! TO.N,GND*
X90800000Y-84200000D03*
G04 #@! TO.P,SW2,B*
G04 #@! TO.N,B1*
X93300000Y-84200000D03*
D20*
G04 #@! TO.P,SW2,MP*
G04 #@! TO.N,N/C*
X85200000Y-76700000D03*
X96400000Y-76700000D03*
D19*
G04 #@! TO.P,SW2,S2*
G04 #@! TO.N,Net-(D2-Pad2)*
X88300000Y-69700000D03*
G04 #@! TO.P,SW2,S1*
G04 #@! TO.N,col0*
X93300000Y-69700000D03*
G04 #@! TD*
D21*
G04 #@! TO.P,RESET,2*
G04 #@! TO.N,Net-(R4-Pad1)*
X154950000Y-82200000D03*
X154950000Y-76000000D03*
G04 #@! TO.P,RESET,1*
G04 #@! TO.N,GND*
X158650000Y-82200000D03*
X158650000Y-76000000D03*
G04 #@! TD*
G04 #@! TO.P,10k,2*
G04 #@! TO.N,Net-(R7-Pad2)*
G04 #@! TA.AperFunction,SMDPad,CuDef*
G36*
G01*
X158349999Y-88400000D02*
X159250001Y-88400000D01*
G75*
G02*
X159500000Y-88649999I0J-249999D01*
G01*
X159500000Y-89350001D01*
G75*
G02*
X159250001Y-89600000I-249999J0D01*
G01*
X158349999Y-89600000D01*
G75*
G02*
X158100000Y-89350001I0J249999D01*
G01*
X158100000Y-88649999D01*
G75*
G02*
X158349999Y-88400000I249999J0D01*
G01*
G37*
G04 #@! TD.AperFunction*
G04 #@! TO.P,10k,1*
G04 #@! TO.N,GND*
G04 #@! TA.AperFunction,SMDPad,CuDef*
G36*
G01*
X158349999Y-86400000D02*
X159250001Y-86400000D01*
G75*
G02*
X159500000Y-86649999I0J-249999D01*
G01*
X159500000Y-87350001D01*
G75*
G02*
X159250001Y-87600000I-249999J0D01*
G01*
X158349999Y-87600000D01*
G75*
G02*
X158100000Y-87350001I0J249999D01*
G01*
X158100000Y-86649999D01*
G75*
G02*
X158349999Y-86400000I249999J0D01*
G01*
G37*
G04 #@! TD.AperFunction*
G04 #@! TD*
G04 #@! TO.P,5.1k,2*
G04 #@! TO.N,GND*
G04 #@! TA.AperFunction,SMDPad,CuDef*
G36*
G01*
X142300000Y-72449999D02*
X142300000Y-73350001D01*
G75*
G02*
X142050001Y-73600000I-249999J0D01*
G01*
X141349999Y-73600000D01*
G75*
G02*
X141100000Y-73350001I0J249999D01*
G01*
X141100000Y-72449999D01*
G75*
G02*
X141349999Y-72200000I249999J0D01*
G01*
X142050001Y-72200000D01*
G75*
G02*
X142300000Y-72449999I0J-249999D01*
G01*
G37*
G04 #@! TD.AperFunction*
G04 #@! TO.P,5.1k,1*
G04 #@! TO.N,Net-(J1-PadB5)*
G04 #@! TA.AperFunction,SMDPad,CuDef*
G36*
G01*
X144300000Y-72449999D02*
X144300000Y-73350001D01*
G75*
G02*
X144050001Y-73600000I-249999J0D01*
G01*
X143349999Y-73600000D01*
G75*
G02*
X143100000Y-73350001I0J249999D01*
G01*
X143100000Y-72449999D01*
G75*
G02*
X143349999Y-72200000I249999J0D01*
G01*
X144050001Y-72200000D01*
G75*
G02*
X144300000Y-72449999I0J-249999D01*
G01*
G37*
G04 #@! TD.AperFunction*
G04 #@! TD*
G04 #@! TO.P,5.1k,2*
G04 #@! TO.N,GND*
G04 #@! TA.AperFunction,SMDPad,CuDef*
G36*
G01*
X158200000Y-73350001D02*
X158200000Y-72449999D01*
G75*
G02*
X158449999Y-72200000I249999J0D01*
G01*
X159150001Y-72200000D01*
G75*
G02*
X159400000Y-72449999I0J-249999D01*
G01*
X159400000Y-73350001D01*
G75*
G02*
X159150001Y-73600000I-249999J0D01*
G01*
X158449999Y-73600000D01*
G75*
G02*
X158200000Y-73350001I0J249999D01*
G01*
G37*
G04 #@! TD.AperFunction*
G04 #@! TO.P,5.1k,1*
G04 #@! TO.N,Net-(J1-PadA5)*
G04 #@! TA.AperFunction,SMDPad,CuDef*
G36*
G01*
X156200000Y-73350001D02*
X156200000Y-72449999D01*
G75*
G02*
X156449999Y-72200000I249999J0D01*
G01*
X157150001Y-72200000D01*
G75*
G02*
X157400000Y-72449999I0J-249999D01*
G01*
X157400000Y-73350001D01*
G75*
G02*
X157150001Y-73600000I-249999J0D01*
G01*
X156449999Y-73600000D01*
G75*
G02*
X156200000Y-73350001I0J249999D01*
G01*
G37*
G04 #@! TD.AperFunction*
G04 #@! TD*
G04 #@! TO.P,10k,2*
G04 #@! TO.N,+5V*
G04 #@! TA.AperFunction,SMDPad,CuDef*
G36*
G01*
X151750001Y-79800000D02*
X150849999Y-79800000D01*
G75*
G02*
X150600000Y-79550001I0J249999D01*
G01*
X150600000Y-78849999D01*
G75*
G02*
X150849999Y-78600000I249999J0D01*
G01*
X151750001Y-78600000D01*
G75*
G02*
X152000000Y-78849999I0J-249999D01*
G01*
X152000000Y-79550001D01*
G75*
G02*
X151750001Y-79800000I-249999J0D01*
G01*
G37*
G04 #@! TD.AperFunction*
G04 #@! TO.P,10k,1*
G04 #@! TO.N,Net-(R4-Pad1)*
G04 #@! TA.AperFunction,SMDPad,CuDef*
G36*
G01*
X151750001Y-81800000D02*
X150849999Y-81800000D01*
G75*
G02*
X150600000Y-81550001I0J249999D01*
G01*
X150600000Y-80849999D01*
G75*
G02*
X150849999Y-80600000I249999J0D01*
G01*
X151750001Y-80600000D01*
G75*
G02*
X152000000Y-80849999I0J-249999D01*
G01*
X152000000Y-81550001D01*
G75*
G02*
X151750001Y-81800000I-249999J0D01*
G01*
G37*
G04 #@! TD.AperFunction*
G04 #@! TD*
G04 #@! TO.P,22R,2*
G04 #@! TO.N,D-*
G04 #@! TA.AperFunction,SMDPad,CuDef*
G36*
G01*
X141050001Y-79800000D02*
X140149999Y-79800000D01*
G75*
G02*
X139900000Y-79550001I0J249999D01*
G01*
X139900000Y-78849999D01*
G75*
G02*
X140149999Y-78600000I249999J0D01*
G01*
X141050001Y-78600000D01*
G75*
G02*
X141300000Y-78849999I0J-249999D01*
G01*
X141300000Y-79550001D01*
G75*
G02*
X141050001Y-79800000I-249999J0D01*
G01*
G37*
G04 #@! TD.AperFunction*
G04 #@! TO.P,22R,1*
G04 #@! TO.N,Net-(R2-Pad1)*
G04 #@! TA.AperFunction,SMDPad,CuDef*
G36*
G01*
X141050001Y-81800000D02*
X140149999Y-81800000D01*
G75*
G02*
X139900000Y-81550001I0J249999D01*
G01*
X139900000Y-80849999D01*
G75*
G02*
X140149999Y-80600000I249999J0D01*
G01*
X141050001Y-80600000D01*
G75*
G02*
X141300000Y-80849999I0J-249999D01*
G01*
X141300000Y-81550001D01*
G75*
G02*
X141050001Y-81800000I-249999J0D01*
G01*
G37*
G04 #@! TD.AperFunction*
G04 #@! TD*
G04 #@! TO.P,22R,2*
G04 #@! TO.N,D+*
G04 #@! TA.AperFunction,SMDPad,CuDef*
G36*
G01*
X144550001Y-79800000D02*
X143649999Y-79800000D01*
G75*
G02*
X143400000Y-79550001I0J249999D01*
G01*
X143400000Y-78849999D01*
G75*
G02*
X143649999Y-78600000I249999J0D01*
G01*
X144550001Y-78600000D01*
G75*
G02*
X144800000Y-78849999I0J-249999D01*
G01*
X144800000Y-79550001D01*
G75*
G02*
X144550001Y-79800000I-249999J0D01*
G01*
G37*
G04 #@! TD.AperFunction*
G04 #@! TO.P,22R,1*
G04 #@! TO.N,Net-(R1-Pad1)*
G04 #@! TA.AperFunction,SMDPad,CuDef*
G36*
G01*
X144550001Y-81800000D02*
X143649999Y-81800000D01*
G75*
G02*
X143400000Y-81550001I0J249999D01*
G01*
X143400000Y-80849999D01*
G75*
G02*
X143649999Y-80600000I249999J0D01*
G01*
X144550001Y-80600000D01*
G75*
G02*
X144800000Y-80849999I0J-249999D01*
G01*
X144800000Y-81550001D01*
G75*
G02*
X144550001Y-81800000I-249999J0D01*
G01*
G37*
G04 #@! TD.AperFunction*
G04 #@! TD*
D22*
G04 #@! TO.P,D7,2*
G04 #@! TO.N,Net-(D7-Pad2)*
X119300000Y-93650000D03*
G04 #@! TO.P,D7,1*
G04 #@! TO.N,row1*
X119300000Y-96950000D03*
G04 #@! TD*
G04 #@! TO.P,D6,2*
G04 #@! TO.N,Net-(D6-Pad2)*
X119400000Y-75050000D03*
G04 #@! TO.P,D6,1*
G04 #@! TO.N,row0*
X119400000Y-78350000D03*
G04 #@! TD*
G04 #@! TO.P,D5,2*
G04 #@! TO.N,Net-(D5-Pad2)*
X100200000Y-93650000D03*
G04 #@! TO.P,D5,1*
G04 #@! TO.N,row1*
X100200000Y-96950000D03*
G04 #@! TD*
G04 #@! TO.P,D4,2*
G04 #@! TO.N,Net-(D4-Pad2)*
X100300000Y-75050000D03*
G04 #@! TO.P,D4,1*
G04 #@! TO.N,row0*
X100300000Y-78350000D03*
G04 #@! TD*
G04 #@! TO.P,D3,2*
G04 #@! TO.N,Net-(D3-Pad2)*
X81200000Y-93650000D03*
G04 #@! TO.P,D3,1*
G04 #@! TO.N,row1*
X81200000Y-96950000D03*
G04 #@! TD*
G04 #@! TO.P,D2,2*
G04 #@! TO.N,Net-(D2-Pad2)*
X81200000Y-75050000D03*
G04 #@! TO.P,D2,1*
G04 #@! TO.N,row0*
X81200000Y-78350000D03*
G04 #@! TD*
G04 #@! TO.P,1uf,2*
G04 #@! TO.N,GND*
G04 #@! TA.AperFunction,SMDPad,CuDef*
G36*
G01*
X148275000Y-79750000D02*
X147325000Y-79750000D01*
G75*
G02*
X147075000Y-79500000I0J250000D01*
G01*
X147075000Y-78825000D01*
G75*
G02*
X147325000Y-78575000I250000J0D01*
G01*
X148275000Y-78575000D01*
G75*
G02*
X148525000Y-78825000I0J-250000D01*
G01*
X148525000Y-79500000D01*
G75*
G02*
X148275000Y-79750000I-250000J0D01*
G01*
G37*
G04 #@! TD.AperFunction*
G04 #@! TO.P,1uf,1*
G04 #@! TO.N,Net-(C6-Pad1)*
G04 #@! TA.AperFunction,SMDPad,CuDef*
G36*
G01*
X148275000Y-81825000D02*
X147325000Y-81825000D01*
G75*
G02*
X147075000Y-81575000I0J250000D01*
G01*
X147075000Y-80900000D01*
G75*
G02*
X147325000Y-80650000I250000J0D01*
G01*
X148275000Y-80650000D01*
G75*
G02*
X148525000Y-80900000I0J-250000D01*
G01*
X148525000Y-81575000D01*
G75*
G02*
X148275000Y-81825000I-250000J0D01*
G01*
G37*
G04 #@! TD.AperFunction*
G04 #@! TD*
G04 #@! TO.P,22pf,2*
G04 #@! TO.N,GND*
G04 #@! TA.AperFunction,SMDPad,CuDef*
G36*
G01*
X152450000Y-105375000D02*
X152450000Y-104425000D01*
G75*
G02*
X152700000Y-104175000I250000J0D01*
G01*
X153375000Y-104175000D01*
G75*
G02*
X153625000Y-104425000I0J-250000D01*
G01*
X153625000Y-105375000D01*
G75*
G02*
X153375000Y-105625000I-250000J0D01*
G01*
X152700000Y-105625000D01*
G75*
G02*
X152450000Y-105375000I0J250000D01*
G01*
G37*
G04 #@! TD.AperFunction*
G04 #@! TO.P,22pf,1*
G04 #@! TO.N,Net-(C5-Pad1)*
G04 #@! TA.AperFunction,SMDPad,CuDef*
G36*
G01*
X150375000Y-105375000D02*
X150375000Y-104425000D01*
G75*
G02*
X150625000Y-104175000I250000J0D01*
G01*
X151300000Y-104175000D01*
G75*
G02*
X151550000Y-104425000I0J-250000D01*
G01*
X151550000Y-105375000D01*
G75*
G02*
X151300000Y-105625000I-250000J0D01*
G01*
X150625000Y-105625000D01*
G75*
G02*
X150375000Y-105375000I0J250000D01*
G01*
G37*
G04 #@! TD.AperFunction*
G04 #@! TD*
G04 #@! TO.P,22pf,2*
G04 #@! TO.N,GND*
G04 #@! TA.AperFunction,SMDPad,CuDef*
G36*
G01*
X144612500Y-104425000D02*
X144612500Y-105375000D01*
G75*
G02*
X144362500Y-105625000I-250000J0D01*
G01*
X143687500Y-105625000D01*
G75*
G02*
X143437500Y-105375000I0J250000D01*
G01*
X143437500Y-104425000D01*
G75*
G02*
X143687500Y-104175000I250000J0D01*
G01*
X144362500Y-104175000D01*
G75*
G02*
X144612500Y-104425000I0J-250000D01*
G01*
G37*
G04 #@! TD.AperFunction*
G04 #@! TO.P,22pf,1*
G04 #@! TO.N,Net-(C4-Pad1)*
G04 #@! TA.AperFunction,SMDPad,CuDef*
G36*
G01*
X146687500Y-104425000D02*
X146687500Y-105375000D01*
G75*
G02*
X146437500Y-105625000I-250000J0D01*
G01*
X145762500Y-105625000D01*
G75*
G02*
X145512500Y-105375000I0J250000D01*
G01*
X145512500Y-104425000D01*
G75*
G02*
X145762500Y-104175000I250000J0D01*
G01*
X146437500Y-104175000D01*
G75*
G02*
X146687500Y-104425000I0J-250000D01*
G01*
G37*
G04 #@! TD.AperFunction*
G04 #@! TD*
G04 #@! TO.P,10uf,2*
G04 #@! TO.N,GND*
G04 #@! TA.AperFunction,SMDPad,CuDef*
G36*
G01*
X140350000Y-89925000D02*
X140350000Y-90875000D01*
G75*
G02*
X140100000Y-91125000I-250000J0D01*
G01*
X139425000Y-91125000D01*
G75*
G02*
X139175000Y-90875000I0J250000D01*
G01*
X139175000Y-89925000D01*
G75*
G02*
X139425000Y-89675000I250000J0D01*
G01*
X140100000Y-89675000D01*
G75*
G02*
X140350000Y-89925000I0J-250000D01*
G01*
G37*
G04 #@! TD.AperFunction*
G04 #@! TO.P,10uf,1*
G04 #@! TO.N,+5V*
G04 #@! TA.AperFunction,SMDPad,CuDef*
G36*
G01*
X142425000Y-89925000D02*
X142425000Y-90875000D01*
G75*
G02*
X142175000Y-91125000I-250000J0D01*
G01*
X141500000Y-91125000D01*
G75*
G02*
X141250000Y-90875000I0J250000D01*
G01*
X141250000Y-89925000D01*
G75*
G02*
X141500000Y-89675000I250000J0D01*
G01*
X142175000Y-89675000D01*
G75*
G02*
X142425000Y-89925000I0J-250000D01*
G01*
G37*
G04 #@! TD.AperFunction*
G04 #@! TD*
G04 #@! TO.P,0.1uf,2*
G04 #@! TO.N,GND*
G04 #@! TA.AperFunction,SMDPad,CuDef*
G36*
G01*
X158525000Y-96450000D02*
X159475000Y-96450000D01*
G75*
G02*
X159725000Y-96700000I0J-250000D01*
G01*
X159725000Y-97375000D01*
G75*
G02*
X159475000Y-97625000I-250000J0D01*
G01*
X158525000Y-97625000D01*
G75*
G02*
X158275000Y-97375000I0J250000D01*
G01*
X158275000Y-96700000D01*
G75*
G02*
X158525000Y-96450000I250000J0D01*
G01*
G37*
G04 #@! TD.AperFunction*
G04 #@! TO.P,0.1uf,1*
G04 #@! TO.N,+5V*
G04 #@! TA.AperFunction,SMDPad,CuDef*
G36*
G01*
X158525000Y-94375000D02*
X159475000Y-94375000D01*
G75*
G02*
X159725000Y-94625000I0J-250000D01*
G01*
X159725000Y-95300000D01*
G75*
G02*
X159475000Y-95550000I-250000J0D01*
G01*
X158525000Y-95550000D01*
G75*
G02*
X158275000Y-95300000I0J250000D01*
G01*
X158275000Y-94625000D01*
G75*
G02*
X158525000Y-94375000I250000J0D01*
G01*
G37*
G04 #@! TD.AperFunction*
G04 #@! TD*
G04 #@! TO.P,0.1uf,2*
G04 #@! TO.N,GND*
G04 #@! TA.AperFunction,SMDPad,CuDef*
G36*
G01*
X140350000Y-93125000D02*
X140350000Y-94075000D01*
G75*
G02*
X140100000Y-94325000I-250000J0D01*
G01*
X139425000Y-94325000D01*
G75*
G02*
X139175000Y-94075000I0J250000D01*
G01*
X139175000Y-93125000D01*
G75*
G02*
X139425000Y-92875000I250000J0D01*
G01*
X140100000Y-92875000D01*
G75*
G02*
X140350000Y-93125000I0J-250000D01*
G01*
G37*
G04 #@! TD.AperFunction*
G04 #@! TO.P,0.1uf,1*
G04 #@! TO.N,+5V*
G04 #@! TA.AperFunction,SMDPad,CuDef*
G36*
G01*
X142425000Y-93125000D02*
X142425000Y-94075000D01*
G75*
G02*
X142175000Y-94325000I-250000J0D01*
G01*
X141500000Y-94325000D01*
G75*
G02*
X141250000Y-94075000I0J250000D01*
G01*
X141250000Y-93125000D01*
G75*
G02*
X141500000Y-92875000I250000J0D01*
G01*
X142175000Y-92875000D01*
G75*
G02*
X142425000Y-93125000I0J-250000D01*
G01*
G37*
G04 #@! TD.AperFunction*
G04 #@! TD*
D23*
G04 #@! TO.N,D+*
X151500000Y-72000000D03*
G04 #@! TO.N,GND*
X109900000Y-88300000D03*
X117200000Y-88300000D03*
X135100000Y-90400000D03*
X139900000Y-72900000D03*
X81600000Y-82500000D03*
G04 #@! TO.N,+5V*
X153400000Y-76000000D03*
X156900000Y-70800000D03*
G04 #@! TO.N,row0*
X146900000Y-83800000D03*
X119300000Y-84100000D03*
G04 #@! TO.N,row1*
X145700000Y-84900000D03*
X137200000Y-92800000D03*
G04 #@! TO.N,D+*
X149000000Y-72000000D03*
G04 #@! TO.N,A1*
X157600000Y-92200000D03*
G04 #@! TO.N,B1*
X109300000Y-84200000D03*
X158700000Y-91400000D03*
G04 #@! TO.N,col0*
X149950000Y-83550000D03*
X116600000Y-82400000D03*
G04 #@! TO.N,col1*
X151550000Y-83050000D03*
G04 #@! TO.N,col2*
X153150000Y-82250000D03*
G04 #@! TD*
D24*
G04 #@! TO.N,GND*
X149950000Y-91186398D02*
X147763602Y-89000000D01*
X147763602Y-89000000D02*
X146900000Y-89000000D01*
X149950000Y-93650000D02*
X149950000Y-91186398D01*
D25*
X158650000Y-76000000D02*
X158650000Y-82200000D01*
X139762500Y-90400000D02*
X139762500Y-93600000D01*
X139762500Y-100637500D02*
X144025000Y-104900000D01*
X139762500Y-93600000D02*
X139762500Y-100637500D01*
X158800000Y-75850000D02*
X158650000Y-76000000D01*
X158800000Y-72900000D02*
X158800000Y-75850000D01*
D24*
X135100000Y-90400000D02*
X139762500Y-90400000D01*
X144145990Y-87299990D02*
X144145990Y-83254010D01*
X145846000Y-89000000D02*
X144145990Y-87299990D01*
X146900000Y-89000000D02*
X145846000Y-89000000D01*
X147800000Y-79600000D02*
X147800000Y-79162500D01*
X144145990Y-83254010D02*
X147800000Y-79600000D01*
X147800000Y-79162500D02*
X147800000Y-78900000D01*
X147800000Y-78900000D02*
X152300000Y-74400000D01*
X157050000Y-74400000D02*
X158650000Y-76000000D01*
X152300000Y-74400000D02*
X157050000Y-74400000D01*
X141700000Y-72900000D02*
X139900000Y-72900000D01*
X139900000Y-72900000D02*
X139900000Y-72900000D01*
X144025000Y-104900000D02*
X145225000Y-106100000D01*
X151837500Y-106100000D02*
X153037500Y-104900000D01*
X145225000Y-106100000D02*
X151837500Y-106100000D01*
D25*
X158800000Y-82350000D02*
X158650000Y-82200000D01*
X158800000Y-87000000D02*
X158800000Y-82350000D01*
X117200000Y-88300000D02*
X109900000Y-88300000D01*
X90800000Y-84200000D02*
X89100000Y-82500000D01*
X89100000Y-82500000D02*
X81600000Y-82500000D01*
X81600000Y-82500000D02*
X81600000Y-82500000D01*
X149950000Y-93650000D02*
X149950000Y-95050000D01*
X149950000Y-95050000D02*
X153637500Y-98737500D01*
D26*
X153655000Y-69345000D02*
X154570000Y-68430000D01*
X153500000Y-69345000D02*
X153655000Y-69345000D01*
X154570000Y-68430000D02*
X154570000Y-64250000D01*
X145930000Y-68430000D02*
X145930000Y-64250000D01*
X146085000Y-68430000D02*
X147000000Y-69345000D01*
X145930000Y-68430000D02*
X146085000Y-68430000D01*
D24*
X145930000Y-64250000D02*
X154570000Y-64250000D01*
D25*
X144360000Y-69750000D02*
X145930000Y-68180000D01*
X139936092Y-69750000D02*
X144360000Y-69750000D01*
X137095191Y-72590901D02*
X139936092Y-69750000D01*
X137095190Y-87732690D02*
X137095191Y-72590901D01*
X139762500Y-90400000D02*
X137095190Y-87732690D01*
X153037500Y-102962500D02*
X153037500Y-104900000D01*
X158962500Y-97037500D02*
X157000000Y-99000000D01*
X157000000Y-99000000D02*
X153037500Y-102962500D01*
X159000000Y-97037500D02*
X158962500Y-97037500D01*
X157262500Y-98737500D02*
X157000000Y-99000000D01*
X153637500Y-98737500D02*
X157262500Y-98737500D01*
D24*
G04 #@! TO.N,+5V*
X142837500Y-91400000D02*
X141837500Y-90400000D01*
X146900000Y-91400000D02*
X142837500Y-91400000D01*
X150750000Y-94513602D02*
X152898898Y-96662500D01*
X150750000Y-93650000D02*
X150750000Y-94513602D01*
X141837500Y-90400000D02*
X141837500Y-93600000D01*
X146900000Y-92200000D02*
X146900000Y-92600000D01*
X145900000Y-93600000D02*
X141837500Y-93600000D01*
X146900000Y-92600000D02*
X145900000Y-93600000D01*
D25*
X156900000Y-70800000D02*
X156900000Y-70800000D01*
X156900000Y-70800000D02*
X159400000Y-70800000D01*
D24*
X151300000Y-79000000D02*
X151300000Y-79200000D01*
D25*
X151300000Y-78100000D02*
X153400000Y-76000000D01*
X151300000Y-79200000D02*
X151300000Y-78100000D01*
X159400000Y-70800000D02*
X160000000Y-71400000D01*
D24*
X147800000Y-68331398D02*
X147800000Y-69095000D01*
X148542409Y-67588989D02*
X147800000Y-68331398D01*
X151957591Y-67588989D02*
X148542409Y-67588989D01*
X152700000Y-68331398D02*
X151957591Y-67588989D01*
X152700000Y-69095000D02*
X152700000Y-68331398D01*
D25*
X137600000Y-72800000D02*
X137600000Y-86162500D01*
X137600000Y-86162500D02*
X141837500Y-90400000D01*
D24*
X147415764Y-70700000D02*
X139700000Y-70700000D01*
X147800000Y-70315764D02*
X147415764Y-70700000D01*
X147800000Y-69350000D02*
X147800000Y-70315764D01*
X139700000Y-70700000D02*
X137600000Y-72800000D01*
X153086398Y-70800000D02*
X156900000Y-70800000D01*
X152700000Y-70413602D02*
X153086398Y-70800000D01*
X152700000Y-69350000D02*
X152700000Y-70413602D01*
D25*
X160000000Y-71400000D02*
X160000000Y-94262500D01*
X157300000Y-96662500D02*
X159000000Y-94962500D01*
X152898898Y-96662500D02*
X157300000Y-96662500D01*
X159300000Y-94962500D02*
X160000000Y-94262500D01*
X159000000Y-94962500D02*
X159300000Y-94962500D01*
D24*
G04 #@! TO.N,Net-(C4-Pad1)*
X146100000Y-99800000D02*
X146100000Y-104900000D01*
X148350000Y-97550000D02*
X146100000Y-99800000D01*
X148350000Y-93650000D02*
X148350000Y-97550000D01*
G04 #@! TO.N,Net-(C5-Pad1)*
X150980000Y-104882500D02*
X150962500Y-104900000D01*
X150980000Y-99800000D02*
X150980000Y-104882500D01*
X149150000Y-97970000D02*
X150980000Y-99800000D01*
X149150000Y-93650000D02*
X149150000Y-97970000D01*
G04 #@! TO.N,Net-(C6-Pad1)*
X147800000Y-81237500D02*
X146962500Y-81237500D01*
X146962500Y-81237500D02*
X144600000Y-83600000D01*
X145846000Y-88200000D02*
X146900000Y-88200000D01*
X144600000Y-86954000D02*
X145846000Y-88200000D01*
X144600000Y-83600000D02*
X144600000Y-86954000D01*
G04 #@! TO.N,Net-(D2-Pad2)*
X88300000Y-72890000D02*
X86950000Y-74240000D01*
X88300000Y-69700000D02*
X88300000Y-72890000D01*
X82010000Y-74240000D02*
X86950000Y-74240000D01*
X81200000Y-75050000D02*
X82010000Y-74240000D01*
G04 #@! TO.N,row0*
X146900000Y-86600000D02*
X146900000Y-83800000D01*
X146900000Y-83800000D02*
X146900000Y-83800000D01*
X81200000Y-78350000D02*
X84150000Y-81300000D01*
X97350000Y-81300000D02*
X100300000Y-78350000D01*
X84150000Y-81300000D02*
X97350000Y-81300000D01*
X119400000Y-78350000D02*
X119400000Y-78500000D01*
X119400000Y-78500000D02*
X116800000Y-81100000D01*
X103050000Y-81100000D02*
X100300000Y-78350000D01*
X116800000Y-81100000D02*
X103050000Y-81100000D01*
X119400000Y-84000000D02*
X119300000Y-84100000D01*
X119400000Y-78350000D02*
X119400000Y-84000000D01*
G04 #@! TO.N,Net-(D3-Pad2)*
X86500000Y-93650000D02*
X86890000Y-93260000D01*
X81200000Y-93650000D02*
X86500000Y-93650000D01*
G04 #@! TO.N,row1*
X146036398Y-87400000D02*
X145700000Y-87063602D01*
X146900000Y-87400000D02*
X146036398Y-87400000D01*
X145700000Y-87063602D02*
X145700000Y-84900000D01*
X145700000Y-84900000D02*
X145700000Y-84900000D01*
X81200000Y-96950000D02*
X81200000Y-97200000D01*
X81200000Y-97200000D02*
X83300000Y-99300000D01*
X97850000Y-99300000D02*
X100200000Y-96950000D01*
X83300000Y-99300000D02*
X97850000Y-99300000D01*
X100200000Y-96950000D02*
X100250000Y-96950000D01*
X100250000Y-96950000D02*
X102600000Y-99300000D01*
X116950000Y-99300000D02*
X119300000Y-96950000D01*
X102600000Y-99300000D02*
X116950000Y-99300000D01*
X119300000Y-96950000D02*
X119300000Y-97200000D01*
X119300000Y-96950000D02*
X119350000Y-96950000D01*
X119350000Y-96950000D02*
X121700000Y-99300000D01*
D25*
X121700000Y-99300000D02*
X134700000Y-99300000D01*
X134700000Y-99300000D02*
X137200000Y-96800000D01*
X137200000Y-96800000D02*
X137200000Y-92800000D01*
X137200000Y-92800000D02*
X137200000Y-92800000D01*
D24*
G04 #@! TO.N,Net-(D4-Pad2)*
X101110000Y-74240000D02*
X100300000Y-75050000D01*
X105950000Y-74240000D02*
X101110000Y-74240000D01*
G04 #@! TO.N,Net-(D5-Pad2)*
X105540000Y-93650000D02*
X105950000Y-93240000D01*
X100200000Y-93650000D02*
X105540000Y-93650000D01*
G04 #@! TO.N,Net-(D6-Pad2)*
X126400000Y-72890000D02*
X125050000Y-74240000D01*
X126400000Y-69700000D02*
X126400000Y-72890000D01*
X120210000Y-74240000D02*
X125050000Y-74240000D01*
X119400000Y-75050000D02*
X120210000Y-74240000D01*
G04 #@! TO.N,Net-(D7-Pad2)*
X124740000Y-93650000D02*
X125050000Y-93340000D01*
X119300000Y-93650000D02*
X124740000Y-93650000D01*
G04 #@! TO.N,D-*
X140600000Y-79200000D02*
X140600000Y-79100000D01*
X141945990Y-77854010D02*
X140600000Y-79200000D01*
X141945990Y-76211943D02*
X141945990Y-77854010D01*
X142586943Y-75570990D02*
X141945990Y-76211943D01*
X148072626Y-75570990D02*
X142586943Y-75570990D01*
D26*
X150000000Y-73643616D02*
X148072626Y-75570990D01*
X150000000Y-69345000D02*
X150000000Y-73643616D01*
D24*
X150000000Y-68116000D02*
X150000000Y-69095000D01*
X150073001Y-68042999D02*
X150000000Y-68116000D01*
X150926999Y-68042999D02*
X150073001Y-68042999D01*
X151000000Y-68116000D02*
X150926999Y-68042999D01*
X151000000Y-69095000D02*
X151000000Y-68116000D01*
G04 #@! TO.N,D+*
X143800000Y-79200000D02*
X144100000Y-79200000D01*
X148260682Y-76025000D02*
X142775000Y-76025000D01*
X142775000Y-76025000D02*
X142400000Y-76400000D01*
X142400000Y-76400000D02*
X142400000Y-77800000D01*
X142400000Y-77800000D02*
X143800000Y-79200000D01*
D26*
X150500000Y-73785682D02*
X148260682Y-76025000D01*
X150500000Y-70250000D02*
X150500000Y-69345000D01*
X150500000Y-69345000D02*
X150500000Y-70500000D01*
D24*
X149500000Y-71500000D02*
X149500000Y-69350000D01*
X149000000Y-72000000D02*
X149500000Y-71500000D01*
X150750000Y-72000000D02*
X150500000Y-71750000D01*
X151500000Y-72000000D02*
X150750000Y-72000000D01*
D26*
X150500000Y-71750000D02*
X150500000Y-73785682D01*
X150500000Y-70500000D02*
X150500000Y-71750000D01*
D24*
G04 #@! TO.N,Net-(R1-Pad1)*
X142654010Y-82645990D02*
X144100000Y-81200000D01*
X146900000Y-89800000D02*
X144442066Y-89800000D01*
X142654010Y-88011944D02*
X142654010Y-86554010D01*
X144442066Y-89800000D02*
X142654010Y-88011944D01*
X142654010Y-86554010D02*
X142654010Y-82645990D01*
X142654010Y-86754010D02*
X142654010Y-86554010D01*
G04 #@! TO.N,Net-(R2-Pad1)*
X144600000Y-90600000D02*
X146900000Y-90600000D01*
X142200000Y-88200000D02*
X144600000Y-90600000D01*
X142200000Y-82800000D02*
X142200000Y-88200000D01*
X140600000Y-81200000D02*
X142200000Y-82800000D01*
G04 #@! TO.N,Net-(R4-Pad1)*
X151350000Y-81150000D02*
X151300000Y-81200000D01*
X148350000Y-83450000D02*
X148350000Y-85150000D01*
X150600000Y-81200000D02*
X148350000Y-83450000D01*
X151300000Y-81200000D02*
X150600000Y-81200000D01*
X153950000Y-81200000D02*
X154950000Y-82200000D01*
X151300000Y-81200000D02*
X153950000Y-81200000D01*
D25*
X154950000Y-76000000D02*
X154950000Y-82200000D01*
G04 #@! TO.N,Net-(R7-Pad2)*
X158800000Y-89000000D02*
X155400000Y-89000000D01*
G04 #@! TO.N,A1*
X155400000Y-92200000D02*
X157600000Y-92200000D01*
X157600000Y-92200000D02*
X157600000Y-92200000D01*
D24*
G04 #@! TO.N,B1*
X109300000Y-84200000D02*
X112200000Y-84200000D01*
X112200000Y-84200000D02*
X114800000Y-86800000D01*
X128800000Y-86800000D02*
X131400000Y-84200000D01*
X114800000Y-86800000D02*
X128800000Y-86800000D01*
D25*
X155400000Y-91400000D02*
X158700000Y-91400000D01*
X158700000Y-91400000D02*
X158700000Y-91400000D01*
D24*
G04 #@! TO.N,col0*
X149950000Y-85150000D02*
X149950000Y-83550000D01*
X149950000Y-83550000D02*
X149950000Y-83550000D01*
X93300000Y-69700000D02*
X93300000Y-71700000D01*
X93300000Y-71700000D02*
X93300000Y-72100000D01*
X101560000Y-82400000D02*
X93240000Y-90720000D01*
X116600000Y-82400000D02*
X101560000Y-82400000D01*
G04 #@! TO.N,col1*
X151550000Y-85150000D02*
X151550000Y-83050000D01*
X151550000Y-83050000D02*
X151550000Y-83050000D01*
G04 #@! TO.N,col2*
X153150000Y-85150000D02*
X153150000Y-82250000D01*
X153150000Y-82250000D02*
X153150000Y-82250000D01*
X131400000Y-69700000D02*
X131400000Y-71700000D01*
X131400000Y-71700000D02*
X131400000Y-80200000D01*
X131400000Y-80200000D02*
X134300000Y-83100000D01*
X134300000Y-87900000D02*
X131400000Y-90800000D01*
X134300000Y-83100000D02*
X134300000Y-87900000D01*
G04 #@! TO.N,Net-(J1-PadB5)*
X148500000Y-69350000D02*
X148500000Y-71250000D01*
X146850000Y-72900000D02*
X145650000Y-72900000D01*
X148500000Y-71250000D02*
X146850000Y-72900000D01*
D26*
X145650000Y-72900000D02*
X145855002Y-72900000D01*
X143700000Y-72900000D02*
X145650000Y-72900000D01*
D24*
G04 #@! TO.N,Net-(J1-PadA5)*
X155100000Y-72900000D02*
X155350000Y-72900000D01*
X155350000Y-72900000D02*
X156800000Y-72900000D01*
X153821000Y-72900000D02*
X154350000Y-72900000D01*
X151500000Y-70579000D02*
X153821000Y-72900000D01*
X151500000Y-69350000D02*
X151500000Y-70579000D01*
D26*
X154350000Y-72900000D02*
X154223002Y-72900000D01*
X155350000Y-72900000D02*
X154350000Y-72900000D01*
G04 #@! TD*
D24*
G04 #@! TO.N,GND*
X147588000Y-94857545D02*
X147588001Y-97234369D01*
X146379006Y-98443364D01*
X146236411Y-98415000D01*
X145963589Y-98415000D01*
X145696011Y-98468225D01*
X145443957Y-98572629D01*
X145217114Y-98724201D01*
X145024201Y-98917114D01*
X144872629Y-99143957D01*
X144768225Y-99396011D01*
X144715000Y-99663589D01*
X144715000Y-99936411D01*
X144768225Y-100203989D01*
X144872629Y-100456043D01*
X145024201Y-100682886D01*
X145217114Y-100875799D01*
X145338000Y-100956573D01*
X145338001Y-103649774D01*
X145269114Y-103686595D01*
X145134538Y-103797038D01*
X145129158Y-103803594D01*
X145063685Y-103723815D01*
X144966994Y-103644463D01*
X144856680Y-103585498D01*
X144736982Y-103549188D01*
X144612500Y-103536928D01*
X144310750Y-103540000D01*
X144152000Y-103698750D01*
X144152000Y-104773000D01*
X144172000Y-104773000D01*
X144172000Y-105027000D01*
X144152000Y-105027000D01*
X144152000Y-106101250D01*
X144310750Y-106260000D01*
X144612500Y-106263072D01*
X144736982Y-106250812D01*
X144856680Y-106214502D01*
X144966994Y-106155537D01*
X145063685Y-106076185D01*
X145129158Y-105996406D01*
X145134538Y-106002962D01*
X145269114Y-106113405D01*
X145422650Y-106195472D01*
X145589246Y-106246008D01*
X145762500Y-106263072D01*
X146437500Y-106263072D01*
X146610754Y-106246008D01*
X146777350Y-106195472D01*
X146930886Y-106113405D01*
X147065462Y-106002962D01*
X147175905Y-105868386D01*
X147257972Y-105714850D01*
X147308508Y-105548254D01*
X147325572Y-105375000D01*
X147325572Y-104425000D01*
X147308508Y-104251746D01*
X147257972Y-104085150D01*
X147175905Y-103931614D01*
X147065462Y-103797038D01*
X146930886Y-103686595D01*
X146862000Y-103649775D01*
X146862000Y-100956573D01*
X146982886Y-100875799D01*
X147175799Y-100682886D01*
X147327371Y-100456043D01*
X147431775Y-100203989D01*
X147485000Y-99936411D01*
X147485000Y-99663589D01*
X147456636Y-99520994D01*
X148544404Y-98433226D01*
X148573128Y-98468225D01*
X148608579Y-98511422D01*
X148637649Y-98535279D01*
X149623364Y-99520995D01*
X149595000Y-99663589D01*
X149595000Y-99936411D01*
X149648225Y-100203989D01*
X149752629Y-100456043D01*
X149904201Y-100682886D01*
X150097114Y-100875799D01*
X150218000Y-100956573D01*
X150218001Y-103640420D01*
X150131614Y-103686595D01*
X149997038Y-103797038D01*
X149886595Y-103931614D01*
X149804528Y-104085150D01*
X149753992Y-104251746D01*
X149736928Y-104425000D01*
X149736928Y-105375000D01*
X149753992Y-105548254D01*
X149804528Y-105714850D01*
X149886595Y-105868386D01*
X149997038Y-106002962D01*
X150131614Y-106113405D01*
X150285150Y-106195472D01*
X150451746Y-106246008D01*
X150625000Y-106263072D01*
X151300000Y-106263072D01*
X151473254Y-106246008D01*
X151639850Y-106195472D01*
X151793386Y-106113405D01*
X151927962Y-106002962D01*
X151933342Y-105996406D01*
X151998815Y-106076185D01*
X152095506Y-106155537D01*
X152205820Y-106214502D01*
X152325518Y-106250812D01*
X152450000Y-106263072D01*
X152751750Y-106260000D01*
X152910500Y-106101250D01*
X152910500Y-105027000D01*
X153164500Y-105027000D01*
X153164500Y-106101250D01*
X153323250Y-106260000D01*
X153625000Y-106263072D01*
X153749482Y-106250812D01*
X153869180Y-106214502D01*
X153979494Y-106155537D01*
X154076185Y-106076185D01*
X154155537Y-105979494D01*
X154214502Y-105869180D01*
X154250812Y-105749482D01*
X154263072Y-105625000D01*
X154260000Y-105185750D01*
X154101250Y-105027000D01*
X153164500Y-105027000D01*
X152910500Y-105027000D01*
X152890500Y-105027000D01*
X152890500Y-104773000D01*
X152910500Y-104773000D01*
X152910500Y-103698750D01*
X153164500Y-103698750D01*
X153164500Y-104773000D01*
X154101250Y-104773000D01*
X154260000Y-104614250D01*
X154263072Y-104175000D01*
X154250812Y-104050518D01*
X154214502Y-103930820D01*
X154155537Y-103820506D01*
X154076185Y-103723815D01*
X153979494Y-103644463D01*
X153869180Y-103585498D01*
X153749482Y-103549188D01*
X153625000Y-103536928D01*
X153323250Y-103540000D01*
X153164500Y-103698750D01*
X152910500Y-103698750D01*
X152751750Y-103540000D01*
X152450000Y-103536928D01*
X152325518Y-103549188D01*
X152205820Y-103585498D01*
X152095506Y-103644463D01*
X151998815Y-103723815D01*
X151933342Y-103803594D01*
X151927962Y-103797038D01*
X151793386Y-103686595D01*
X151742000Y-103659129D01*
X151742000Y-100956573D01*
X151862886Y-100875799D01*
X152055799Y-100682886D01*
X152207371Y-100456043D01*
X152311775Y-100203989D01*
X152365000Y-99936411D01*
X152365000Y-99663589D01*
X152311775Y-99396011D01*
X152207371Y-99143957D01*
X152055799Y-98917114D01*
X151862886Y-98724201D01*
X151636043Y-98572629D01*
X151383989Y-98468225D01*
X151116411Y-98415000D01*
X150843589Y-98415000D01*
X150700995Y-98443364D01*
X149912000Y-97654370D01*
X149912000Y-94857544D01*
X149937067Y-94827000D01*
X149962933Y-94827000D01*
X150023815Y-94901185D01*
X150120506Y-94980537D01*
X150143667Y-94992917D01*
X150235750Y-95085000D01*
X150243147Y-95084379D01*
X152218286Y-97059518D01*
X152241032Y-97102072D01*
X152339429Y-97221969D01*
X152459326Y-97320366D01*
X152596115Y-97393482D01*
X152744541Y-97438506D01*
X152860225Y-97449900D01*
X155073000Y-97449900D01*
X155073000Y-106340000D01*
X142127000Y-106340000D01*
X142127000Y-105625000D01*
X142799428Y-105625000D01*
X142811688Y-105749482D01*
X142847998Y-105869180D01*
X142906963Y-105979494D01*
X142986315Y-106076185D01*
X143083006Y-106155537D01*
X143193320Y-106214502D01*
X143313018Y-106250812D01*
X143437500Y-106263072D01*
X143739250Y-106260000D01*
X143898000Y-106101250D01*
X143898000Y-105027000D01*
X142961250Y-105027000D01*
X142802500Y-105185750D01*
X142799428Y-105625000D01*
X142127000Y-105625000D01*
X142127000Y-104175000D01*
X142799428Y-104175000D01*
X142802500Y-104614250D01*
X142961250Y-104773000D01*
X143898000Y-104773000D01*
X143898000Y-103698750D01*
X143739250Y-103540000D01*
X143437500Y-103536928D01*
X143313018Y-103549188D01*
X143193320Y-103585498D01*
X143083006Y-103644463D01*
X142986315Y-103723815D01*
X142906963Y-103820506D01*
X142847998Y-103930820D01*
X142811688Y-104050518D01*
X142799428Y-104175000D01*
X142127000Y-104175000D01*
X142127000Y-94963072D01*
X142175000Y-94963072D01*
X142348254Y-94946008D01*
X142514850Y-94895472D01*
X142642952Y-94827000D01*
X147562933Y-94827000D01*
X147588000Y-94857545D01*
G04 #@! TA.AperFunction,Conductor*
D27*
G36*
X147588000Y-94857545D02*
G01*
X147588001Y-97234369D01*
X146379006Y-98443364D01*
X146236411Y-98415000D01*
X145963589Y-98415000D01*
X145696011Y-98468225D01*
X145443957Y-98572629D01*
X145217114Y-98724201D01*
X145024201Y-98917114D01*
X144872629Y-99143957D01*
X144768225Y-99396011D01*
X144715000Y-99663589D01*
X144715000Y-99936411D01*
X144768225Y-100203989D01*
X144872629Y-100456043D01*
X145024201Y-100682886D01*
X145217114Y-100875799D01*
X145338000Y-100956573D01*
X145338001Y-103649774D01*
X145269114Y-103686595D01*
X145134538Y-103797038D01*
X145129158Y-103803594D01*
X145063685Y-103723815D01*
X144966994Y-103644463D01*
X144856680Y-103585498D01*
X144736982Y-103549188D01*
X144612500Y-103536928D01*
X144310750Y-103540000D01*
X144152000Y-103698750D01*
X144152000Y-104773000D01*
X144172000Y-104773000D01*
X144172000Y-105027000D01*
X144152000Y-105027000D01*
X144152000Y-106101250D01*
X144310750Y-106260000D01*
X144612500Y-106263072D01*
X144736982Y-106250812D01*
X144856680Y-106214502D01*
X144966994Y-106155537D01*
X145063685Y-106076185D01*
X145129158Y-105996406D01*
X145134538Y-106002962D01*
X145269114Y-106113405D01*
X145422650Y-106195472D01*
X145589246Y-106246008D01*
X145762500Y-106263072D01*
X146437500Y-106263072D01*
X146610754Y-106246008D01*
X146777350Y-106195472D01*
X146930886Y-106113405D01*
X147065462Y-106002962D01*
X147175905Y-105868386D01*
X147257972Y-105714850D01*
X147308508Y-105548254D01*
X147325572Y-105375000D01*
X147325572Y-104425000D01*
X147308508Y-104251746D01*
X147257972Y-104085150D01*
X147175905Y-103931614D01*
X147065462Y-103797038D01*
X146930886Y-103686595D01*
X146862000Y-103649775D01*
X146862000Y-100956573D01*
X146982886Y-100875799D01*
X147175799Y-100682886D01*
X147327371Y-100456043D01*
X147431775Y-100203989D01*
X147485000Y-99936411D01*
X147485000Y-99663589D01*
X147456636Y-99520994D01*
X148544404Y-98433226D01*
X148573128Y-98468225D01*
X148608579Y-98511422D01*
X148637649Y-98535279D01*
X149623364Y-99520995D01*
X149595000Y-99663589D01*
X149595000Y-99936411D01*
X149648225Y-100203989D01*
X149752629Y-100456043D01*
X149904201Y-100682886D01*
X150097114Y-100875799D01*
X150218000Y-100956573D01*
X150218001Y-103640420D01*
X150131614Y-103686595D01*
X149997038Y-103797038D01*
X149886595Y-103931614D01*
X149804528Y-104085150D01*
X149753992Y-104251746D01*
X149736928Y-104425000D01*
X149736928Y-105375000D01*
X149753992Y-105548254D01*
X149804528Y-105714850D01*
X149886595Y-105868386D01*
X149997038Y-106002962D01*
X150131614Y-106113405D01*
X150285150Y-106195472D01*
X150451746Y-106246008D01*
X150625000Y-106263072D01*
X151300000Y-106263072D01*
X151473254Y-106246008D01*
X151639850Y-106195472D01*
X151793386Y-106113405D01*
X151927962Y-106002962D01*
X151933342Y-105996406D01*
X151998815Y-106076185D01*
X152095506Y-106155537D01*
X152205820Y-106214502D01*
X152325518Y-106250812D01*
X152450000Y-106263072D01*
X152751750Y-106260000D01*
X152910500Y-106101250D01*
X152910500Y-105027000D01*
X153164500Y-105027000D01*
X153164500Y-106101250D01*
X153323250Y-106260000D01*
X153625000Y-106263072D01*
X153749482Y-106250812D01*
X153869180Y-106214502D01*
X153979494Y-106155537D01*
X154076185Y-106076185D01*
X154155537Y-105979494D01*
X154214502Y-105869180D01*
X154250812Y-105749482D01*
X154263072Y-105625000D01*
X154260000Y-105185750D01*
X154101250Y-105027000D01*
X153164500Y-105027000D01*
X152910500Y-105027000D01*
X152890500Y-105027000D01*
X152890500Y-104773000D01*
X152910500Y-104773000D01*
X152910500Y-103698750D01*
X153164500Y-103698750D01*
X153164500Y-104773000D01*
X154101250Y-104773000D01*
X154260000Y-104614250D01*
X154263072Y-104175000D01*
X154250812Y-104050518D01*
X154214502Y-103930820D01*
X154155537Y-103820506D01*
X154076185Y-103723815D01*
X153979494Y-103644463D01*
X153869180Y-103585498D01*
X153749482Y-103549188D01*
X153625000Y-103536928D01*
X153323250Y-103540000D01*
X153164500Y-103698750D01*
X152910500Y-103698750D01*
X152751750Y-103540000D01*
X152450000Y-103536928D01*
X152325518Y-103549188D01*
X152205820Y-103585498D01*
X152095506Y-103644463D01*
X151998815Y-103723815D01*
X151933342Y-103803594D01*
X151927962Y-103797038D01*
X151793386Y-103686595D01*
X151742000Y-103659129D01*
X151742000Y-100956573D01*
X151862886Y-100875799D01*
X152055799Y-100682886D01*
X152207371Y-100456043D01*
X152311775Y-100203989D01*
X152365000Y-99936411D01*
X152365000Y-99663589D01*
X152311775Y-99396011D01*
X152207371Y-99143957D01*
X152055799Y-98917114D01*
X151862886Y-98724201D01*
X151636043Y-98572629D01*
X151383989Y-98468225D01*
X151116411Y-98415000D01*
X150843589Y-98415000D01*
X150700995Y-98443364D01*
X149912000Y-97654370D01*
X149912000Y-94857544D01*
X149937067Y-94827000D01*
X149962933Y-94827000D01*
X150023815Y-94901185D01*
X150120506Y-94980537D01*
X150143667Y-94992917D01*
X150235750Y-95085000D01*
X150243147Y-95084379D01*
X152218286Y-97059518D01*
X152241032Y-97102072D01*
X152339429Y-97221969D01*
X152459326Y-97320366D01*
X152596115Y-97393482D01*
X152744541Y-97438506D01*
X152860225Y-97449900D01*
X155073000Y-97449900D01*
X155073000Y-106340000D01*
X142127000Y-106340000D01*
X142127000Y-105625000D01*
X142799428Y-105625000D01*
X142811688Y-105749482D01*
X142847998Y-105869180D01*
X142906963Y-105979494D01*
X142986315Y-106076185D01*
X143083006Y-106155537D01*
X143193320Y-106214502D01*
X143313018Y-106250812D01*
X143437500Y-106263072D01*
X143739250Y-106260000D01*
X143898000Y-106101250D01*
X143898000Y-105027000D01*
X142961250Y-105027000D01*
X142802500Y-105185750D01*
X142799428Y-105625000D01*
X142127000Y-105625000D01*
X142127000Y-104175000D01*
X142799428Y-104175000D01*
X142802500Y-104614250D01*
X142961250Y-104773000D01*
X143898000Y-104773000D01*
X143898000Y-103698750D01*
X143739250Y-103540000D01*
X143437500Y-103536928D01*
X143313018Y-103549188D01*
X143193320Y-103585498D01*
X143083006Y-103644463D01*
X142986315Y-103723815D01*
X142906963Y-103820506D01*
X142847998Y-103930820D01*
X142811688Y-104050518D01*
X142799428Y-104175000D01*
X142127000Y-104175000D01*
X142127000Y-94963072D01*
X142175000Y-94963072D01*
X142348254Y-94946008D01*
X142514850Y-94895472D01*
X142642952Y-94827000D01*
X147562933Y-94827000D01*
X147588000Y-94857545D01*
G37*
G04 #@! TD.AperFunction*
G04 #@! TD*
M02*
