M48
; DRILL file {KiCad (5.1.9)-1} date 03/12/21 14:24:08
; FORMAT={-:-/ absolute / inch / decimal}
; #@! TF.CreationDate,2021-03-12T14:24:08+01:00
; #@! TF.GenerationSoftware,Kicad,Pcbnew,(5.1.9)-1
; #@! TF.FileFunction,NonPlated,1,2,NPTH
FMAT,2
INCH
T1C0.0276
T2C0.0669
T3C0.1575
%
G90
G05
T1
X5.8016Y-2.6634
X6.0291Y-2.6634
T2
X3.3709Y-3.7717
X3.3732Y-3.0228
X3.7709Y-3.7717
X3.7732Y-3.0228
X4.1213Y-3.0228
X4.1213Y-3.7709
X4.5213Y-3.0228
X4.5213Y-3.7709
X4.8732Y-3.0228
X4.8732Y-3.7748
X5.2732Y-3.0228
X5.2732Y-3.7748
T3
X3.5709Y-3.7717
X3.5732Y-3.0228
X4.3213Y-3.0228
X4.3213Y-3.7709
X5.0732Y-3.0228
X5.0732Y-3.7748
T0
M30
