G04 #@! TF.GenerationSoftware,KiCad,Pcbnew,(5.1.9)-1*
G04 #@! TF.CreationDate,2021-03-12T14:24:21+01:00*
G04 #@! TF.ProjectId,case_keypad,63617365-5f6b-4657-9970-61642e6b6963,rev?*
G04 #@! TF.SameCoordinates,Original*
G04 #@! TF.FileFunction,Legend,Bot*
G04 #@! TF.FilePolarity,Positive*
%FSLAX46Y46*%
G04 Gerber Fmt 4.6, Leading zero omitted, Abs format (unit mm)*
G04 Created by KiCad (PCBNEW (5.1.9)-1) date 2021-03-12 14:24:21*
%MOMM*%
%LPD*%
G01*
G04 APERTURE LIST*
%ADD10C,0.120000*%
G04 APERTURE END LIST*
D10*
X158380952Y-106361904D02*
X158380952Y-105561904D01*
X158190476Y-105561904D01*
X158076190Y-105600000D01*
X158000000Y-105676190D01*
X157961904Y-105752380D01*
X157923809Y-105904761D01*
X157923809Y-106019047D01*
X157961904Y-106171428D01*
X158000000Y-106247619D01*
X158076190Y-106323809D01*
X158190476Y-106361904D01*
X158380952Y-106361904D01*
X157580952Y-106285714D02*
X157542857Y-106323809D01*
X157580952Y-106361904D01*
X157619047Y-106323809D01*
X157580952Y-106285714D01*
X157580952Y-106361904D01*
X156057142Y-106438095D02*
X156133333Y-106400000D01*
X156209523Y-106323809D01*
X156323809Y-106209523D01*
X156400000Y-106171428D01*
X156476190Y-106171428D01*
X156438095Y-106361904D02*
X156514285Y-106323809D01*
X156590476Y-106247619D01*
X156628571Y-106095238D01*
X156628571Y-105828571D01*
X156590476Y-105676190D01*
X156514285Y-105600000D01*
X156438095Y-105561904D01*
X156285714Y-105561904D01*
X156209523Y-105600000D01*
X156133333Y-105676190D01*
X156095238Y-105828571D01*
X156095238Y-106095238D01*
X156133333Y-106247619D01*
X156209523Y-106323809D01*
X156285714Y-106361904D01*
X156438095Y-106361904D01*
X155409523Y-105828571D02*
X155409523Y-106361904D01*
X155752380Y-105828571D02*
X155752380Y-106247619D01*
X155714285Y-106323809D01*
X155638095Y-106361904D01*
X155523809Y-106361904D01*
X155447619Y-106323809D01*
X155409523Y-106285714D01*
X154685714Y-106361904D02*
X154685714Y-105942857D01*
X154723809Y-105866666D01*
X154800000Y-105828571D01*
X154952380Y-105828571D01*
X155028571Y-105866666D01*
X154685714Y-106323809D02*
X154761904Y-106361904D01*
X154952380Y-106361904D01*
X155028571Y-106323809D01*
X155066666Y-106247619D01*
X155066666Y-106171428D01*
X155028571Y-106095238D01*
X154952380Y-106057142D01*
X154761904Y-106057142D01*
X154685714Y-106019047D01*
X153961904Y-106323809D02*
X154038095Y-106361904D01*
X154190476Y-106361904D01*
X154266666Y-106323809D01*
X154304761Y-106285714D01*
X154342857Y-106209523D01*
X154342857Y-105980952D01*
X154304761Y-105904761D01*
X154266666Y-105866666D01*
X154190476Y-105828571D01*
X154038095Y-105828571D01*
X153961904Y-105866666D01*
X153619047Y-106361904D02*
X153619047Y-105561904D01*
X153276190Y-106361904D02*
X153276190Y-105942857D01*
X153314285Y-105866666D01*
X153390476Y-105828571D01*
X153504761Y-105828571D01*
X153580952Y-105866666D01*
X153619047Y-105904761D01*
X152323809Y-105638095D02*
X152285714Y-105600000D01*
X152209523Y-105561904D01*
X152019047Y-105561904D01*
X151942857Y-105600000D01*
X151904761Y-105638095D01*
X151866666Y-105714285D01*
X151866666Y-105790476D01*
X151904761Y-105904761D01*
X152361904Y-106361904D01*
X151866666Y-106361904D01*
X151371428Y-105561904D02*
X151295238Y-105561904D01*
X151219047Y-105600000D01*
X151180952Y-105638095D01*
X151142857Y-105714285D01*
X151104761Y-105866666D01*
X151104761Y-106057142D01*
X151142857Y-106209523D01*
X151180952Y-106285714D01*
X151219047Y-106323809D01*
X151295238Y-106361904D01*
X151371428Y-106361904D01*
X151447619Y-106323809D01*
X151485714Y-106285714D01*
X151523809Y-106209523D01*
X151561904Y-106057142D01*
X151561904Y-105866666D01*
X151523809Y-105714285D01*
X151485714Y-105638095D01*
X151447619Y-105600000D01*
X151371428Y-105561904D01*
X150800000Y-105638095D02*
X150761904Y-105600000D01*
X150685714Y-105561904D01*
X150495238Y-105561904D01*
X150419047Y-105600000D01*
X150380952Y-105638095D01*
X150342857Y-105714285D01*
X150342857Y-105790476D01*
X150380952Y-105904761D01*
X150838095Y-106361904D01*
X150342857Y-106361904D01*
X149580952Y-106361904D02*
X150038095Y-106361904D01*
X149809523Y-106361904D02*
X149809523Y-105561904D01*
X149885714Y-105676190D01*
X149961904Y-105752380D01*
X150038095Y-105790476D01*
M02*
